<?xml version="1.0" encoding="UTF-8"?>
<svg version="1.1" xmlns="http://www.w3.org/2000/svg" width="512" height="512">
<path d="M0 0 C1.37761273 -0.00374287 2.75522333 -0.00834691 4.13283062 -0.01373065 C7.89503798 -0.02589794 11.657156 -0.02570762 15.41937852 -0.02334189 C19.4864018 -0.02293212 23.55339704 -0.03398831 27.6204071 -0.04345703 C35.58073117 -0.06003472 43.5410256 -0.06556516 51.50136548 -0.06668179 C57.97742623 -0.06763402 64.45347725 -0.07175305 70.92953491 -0.07808304 C89.31734845 -0.09568844 107.70513869 -0.10492328 126.09296072 -0.10342209 C127.08322118 -0.10334218 128.07348164 -0.10326227 129.09375 -0.10317993 C130.08522935 -0.10309817 131.07670869 -0.10301641 132.09823287 -0.10293217 C148.15156231 -0.10211999 164.20479776 -0.12124236 180.25810003 -0.14945666 C196.76799139 -0.17824281 213.27783699 -0.19199374 229.78775406 -0.19026911 C239.04606344 -0.18960708 248.30427436 -0.19501706 257.56256104 -0.21662521 C265.44830796 -0.23491283 273.33391179 -0.23912271 281.21967083 -0.22560637 C285.23614894 -0.21911405 289.25235317 -0.21882244 293.26880455 -0.23631287 C326.92649941 -0.373571 356.31661716 5.40282215 381.46826172 29.51889038 C400.50034964 48.72799603 410.52548834 73.38769197 410.47483826 100.24983215 C410.47929824 101.64735656 410.48461477 103.04487845 410.49070698 104.4423967 C410.50480665 108.2596764 410.50655181 112.07687436 410.50611007 115.89417636 C410.50776545 120.02052718 410.52084547 124.14684502 410.53230286 128.2731781 C410.55509786 137.2859705 410.56306776 146.29873926 410.5681293 155.31155658 C410.57139319 160.94712405 410.5779199 166.58268474 410.58513069 172.21824837 C410.60469064 187.84409457 410.621098 203.46993449 410.62400723 219.09579372 C410.62419479 220.09465066 410.62438236 221.0935076 410.62457562 222.12263292 C410.62494185 224.14726865 410.62530555 226.17190438 410.62566673 228.19654011 C410.62584954 229.20147283 410.62603235 230.20640555 410.6262207 231.24179077 C410.62649153 232.75104593 410.62649153 232.75104593 410.62676782 234.2907911 C410.6303064 250.57949226 410.65731175 266.86806096 410.69471859 283.15671622 C410.73288118 299.90956545 410.75216529 316.6623491 410.75246674 333.41524273 C410.75304957 342.80942588 410.76142873 352.20345105 410.7904644 361.59759331 C410.81508507 369.59971161 410.82218967 377.60161433 410.80721688 385.60376035 C410.80009099 389.67915272 410.80071607 393.75412033 410.82362747 397.82946396 C410.94726038 421.24969656 408.93471731 440.64838616 397.20068359 461.26742554 C396.65669922 462.25098022 396.11271484 463.23453491 395.55224609 464.24789429 C381.9647209 487.2141259 358.7192898 502.62915502 333.20068359 509.26742554 C323.72999172 511.66263296 314.88588997 512.70412977 305.13035583 512.66183472 C303.7720504 512.66673816 302.41374914 512.6729346 301.05545479 512.68029261 C297.36504501 512.69653193 293.67485106 512.69440731 289.98441827 512.68891764 C285.98760769 512.68622736 281.9908521 512.70081658 277.99406433 512.7130127 C270.17898762 512.73398688 262.36398522 512.7386121 254.54888367 512.73682481 C248.18926297 512.73551285 241.82966528 512.73934338 235.4700489 512.74674988 C233.63224811 512.74884928 231.7944473 512.75094688 229.9566465 512.7530427 C229.04166144 512.75408623 228.12667638 512.75512975 227.1839645 512.7562049 C209.90828198 512.7750758 192.632642 512.77406709 175.35695345 512.76723558 C159.59363888 512.76166546 143.8304871 512.78246853 128.06721055 512.81559604 C111.84080391 512.84942925 95.61447502 512.86448922 79.3880325 512.85987902 C70.29454666 512.85764365 61.20121115 512.86273967 52.10775566 512.88777161 C44.36342841 512.90890989 36.61933388 512.912254 28.87499665 512.89347202 C24.93299825 512.88438967 20.99143224 512.88293638 17.04946899 512.90382767 C-16.54993068 513.07009248 -44.89994996 507.19406596 -70.79931641 484.26742554 C-71.84345703 483.34896851 -71.84345703 483.34896851 -72.90869141 482.41195679 C-88.21687096 468.05288436 -100.94661664 444.73194057 -101.92811757 423.47834176 C-101.92990614 422.45303646 -101.93169471 421.42773116 -101.93353748 420.37135601 C-101.93799533 419.18343006 -101.94245317 417.99550411 -101.9470461 416.7715804 C-101.94686174 415.47024515 -101.94667738 414.16890991 -101.94648743 412.82814026 C-101.94978824 411.42867011 -101.95351427 410.0292009 -101.95762891 408.62973291 C-101.96763274 404.78398135 -101.97136311 400.93824541 -101.97401822 397.09248269 C-101.97792621 392.94429814 -101.98750438 388.7961259 -101.99623108 384.64794922 C-102.01598414 374.62836443 -102.0260614 364.60877864 -102.03495887 354.58917925 C-102.0393447 349.86678261 -102.04471084 345.1443871 -102.04994774 340.42199135 C-102.0669608 324.71570538 -102.08145304 309.0094201 -102.08869648 293.30312634 C-102.09060628 289.2281564 -102.09252662 285.15318647 -102.09448242 281.07821655 C-102.09496616 280.06544139 -102.0954499 279.05266623 -102.0959483 278.00920091 C-102.1042413 261.61794845 -102.12956552 245.22676915 -102.1620631 228.8355486 C-102.19518097 211.99360677 -102.21314961 195.15170204 -102.21634072 178.30972749 C-102.21850172 168.85913547 -102.22718986 159.40865004 -102.2528019 149.95808983 C-102.27457377 141.90601868 -102.28252764 133.85408002 -102.27283511 125.80198278 C-102.26830878 121.69869734 -102.2700785 117.59568487 -102.28959656 113.49243736 C-102.30736212 109.72480085 -102.30612378 105.9576337 -102.29069927 102.18999127 C-102.28724004 100.20478871 -102.30324903 98.21958045 -102.32030374 96.23444813 C-102.22314795 82.45956207 -98.7225975 69.68889441 -92.79931641 57.26742554 C-92.38166016 56.37926147 -91.96400391 55.49109741 -91.53369141 54.57601929 C-79.39090116 30.60447648 -58.12697108 13.99149507 -33.18603516 4.95883179 C-30.06559993 3.9577991 -26.98233264 3.04678224 -23.79931641 2.26742554 C-23.1336799 2.10072432 -22.4680434 1.9340231 -21.7822361 1.76227033 C-14.49624826 0.10715647 -7.44872034 -0.01827979 0 0 Z " fill="#E93C7C" transform="translate(101.79931640625,-0.267425537109375)"/>
<path d="M0 0 C4.87295955 0.05202448 8.26045935 0.31227053 12.3125 3.25 C18.71070869 10.18139274 19.21646477 17.16007104 20.4375 26.25 C20.71013672 28.14685547 20.71013672 28.14685547 20.98828125 30.08203125 C24.08928926 52.72172134 24.08928926 52.72172134 19.3125 59.25 C14.95014882 63.4471592 12.05590775 64.95850502 5.9375 65.921875 C4.89094238 66.09369293 4.89094238 66.09369293 3.82324219 66.26898193 C1.65571306 66.61796921 -0.51445139 66.9374077 -2.6875 67.25 C-3.97398437 67.44271484 -5.26046875 67.63542969 -6.5859375 67.83398438 C-9.8993355 68.31284768 -13.21397283 68.77056234 -16.53237915 69.21264648 C-20.42260159 69.73135015 -24.31089272 70.26416924 -28.19921875 70.796875 C-29.03257248 70.91087646 -29.86592621 71.02487793 -30.72453308 71.14233398 C-37.26591731 72.04228824 -43.79981396 72.98904587 -50.33203125 73.953125 C-51.32563156 74.09975586 -52.31923187 74.24638672 -53.34294128 74.39746094 C-55.37305854 74.69726802 -57.40316406 74.9971546 -59.43325806 75.29711914 C-77.13037909 77.91054001 -94.83482899 80.38556782 -112.59106445 82.56445312 C-121.01702601 83.60495812 -129.39840657 84.80707567 -137.78013611 86.15950012 C-145.02270159 87.32197338 -152.28348223 88.28156532 -159.5625 89.1875 C-162.28020034 89.531882 -164.99753654 89.87909366 -167.71484375 90.2265625 C-168.39158646 90.31293472 -169.06832916 90.39930695 -169.76557922 90.48829651 C-185.46524599 92.496538 -201.13404829 94.72144477 -216.79296875 97.0234375 C-218.39497383 97.25860329 -218.39497383 97.25860329 -220.02934265 97.4985199 C-225.39579847 98.28666511 -230.76168579 99.07838093 -236.12670898 99.8762207 C-238.12872955 100.17148126 -240.13076349 100.46665111 -242.1328125 100.76171875 C-243.48447762 100.96461014 -243.48447762 100.96461014 -244.8634491 101.17160034 C-249.4067414 101.8382139 -253.93740966 102.38957616 -258.51217651 102.79328918 C-259.48623884 102.87985181 -260.46030117 102.96641443 -261.46388054 103.05560017 C-262.56457217 103.15182808 -262.56457217 103.15182808 -263.6875 103.25 C-263.10018223 103.25021737 -262.51286446 103.25043474 -261.90774918 103.25065869 C-227.09415694 103.26417619 -192.2806884 103.30366538 -157.46716923 103.37685562 C-153.28654419 103.38562231 -149.10591873 103.39417213 -144.92529297 103.40258789 C-144.09300993 103.40426695 -143.26072689 103.40594602 -142.40322316 103.40767596 C-128.929147 103.43434168 -115.45511338 103.44344073 -101.98101354 103.44604143 C-88.15408368 103.44910149 -74.32727678 103.47105426 -60.50040245 103.51052457 C-51.9692639 103.53428279 -43.43837081 103.54332587 -34.90720373 103.53351311 C-29.0560881 103.52819505 -23.20519231 103.54123765 -17.35413927 103.5686629 C-13.97877888 103.58394351 -10.60432044 103.58845828 -7.22888374 103.57659721 C-3.56590932 103.56499938 0.09567835 103.58406039 3.75854492 103.61076355 C4.82081676 103.60009029 5.88308861 103.58941703 6.97755051 103.57842034 C15.14206783 103.68949593 20.01030095 105.98053298 25.78015137 111.69319153 C28.2235702 117.36472908 27.8690303 123.06763501 27.83007812 129.15893555 C27.83550286 130.5803855 27.8426275 132.00182982 27.85131836 133.42326355 C27.86952147 137.27490444 27.86249469 141.12611569 27.84980202 144.97776389 C27.83964874 149.01918906 27.84907506 153.06057834 27.85534668 157.102005 C27.86262051 163.89350963 27.85304678 170.68484019 27.83398438 177.47631836 C27.81225986 185.30619244 27.81923567 193.13564913 27.84129 200.96551293 C27.8595041 207.70379041 27.86197179 214.44194294 27.85153532 221.18023711 C27.84532761 225.19747957 27.84438819 229.21452664 27.85768127 233.23175621 C27.86932546 237.01502195 27.86105992 240.79775611 27.83810425 244.58096504 C27.83037906 246.61486221 27.84210271 248.64880487 27.85461426 250.68267822 C27.75164117 261.95671442 25.51151248 271.0278162 17.60546875 279.3046875 C12.17730196 283.90984434 5.24530441 287.36245045 -1.94308376 287.3898077 C-2.81598881 287.39549894 -3.68889386 287.40119018 -4.58825058 287.40705389 C-5.54795464 287.40823376 -6.5076587 287.40941364 -7.4964447 287.41062927 C-9.02504689 287.418261 -9.02504689 287.418261 -10.58452994 287.42604691 C-14.01590594 287.44180371 -17.44726084 287.45030507 -20.87866211 287.45874023 C-23.33251073 287.46827627 -25.78635799 287.47816731 -28.24020386 287.48838806 C-35.6176368 287.51709441 -42.99506944 287.53686211 -50.37253675 287.55378041 C-52.45744786 287.55857674 -54.54235846 287.56355992 -56.62726903 287.56858563 C-69.58188782 287.59956483 -82.53651112 287.6262431 -95.49115658 287.64300442 C-98.4919072 287.64695376 -101.49265774 287.65095677 -104.4934082 287.6550293 C-105.23920828 287.65603766 -105.98500836 287.65704602 -106.75340844 287.65808494 C-118.8214511 287.67507362 -130.88928804 287.71616186 -142.95723038 287.76705229 C-155.35587872 287.81890559 -167.75442149 287.84795705 -180.15317732 287.8552013 C-187.11101909 287.85985456 -194.06852434 287.87451016 -201.02625847 287.9149456 C-207.57705967 287.95297021 -214.12739324 287.96020329 -220.67832565 287.94693947 C-223.077634 287.94699333 -225.47696808 287.95725383 -227.87618065 287.9786911 C-242.87541853 288.1055026 -253.92458895 288.06622532 -265.1875 277.0625 C-273.03751052 268.33452778 -273.2559856 257.07019743 -273.13818359 245.96435547 C-273.13709256 244.45292178 -273.13785332 242.94148581 -273.14030457 241.43005371 C-273.14208434 238.18949907 -273.13181504 234.94929247 -273.11222458 231.70879745 C-273.08198997 226.53820985 -273.08497185 221.36794703 -273.09292603 216.19729614 C-273.10901803 202.41222095 -273.08110951 188.62728436 -273.03612542 174.84228253 C-272.99881648 163.18380853 -272.9896567 151.52568241 -273.0234375 139.8671875 C-273.02562884 138.99952476 -273.02782019 138.13186201 -273.03007793 137.23790646 C-273.10035523 113.69484219 -273.87654021 90.79608579 -278.39697266 67.60986328 C-281.82081437 49.87595011 -281.82081437 49.87595011 -277.5 43.125 C-274.00395783 38.84096102 -269.55155436 36.95227051 -264.1953125 36.08203125 C-263.16019531 35.91123047 -262.12507813 35.74042969 -261.05859375 35.56445312 C-259.98738281 35.39880859 -258.91617188 35.23316406 -257.8125 35.0625 C-256.74902344 34.88525391 -255.68554688 34.70800781 -254.58984375 34.52539062 C-249.22701007 33.6626739 -244.11889047 33.02562632 -238.6875 33.25 C-240.63748897 41.51670855 -242.64297594 49.60257002 -245.6875 57.546875 C-247.15675433 61.51845311 -248.35248213 65.56429276 -249.5625 69.62109375 C-251.18627807 74.85890566 -252.94057998 80.05217092 -254.6875 85.25 C-249.60066844 84.57876224 -244.51444522 83.90313438 -239.42871094 83.22363281 C-237.70263001 82.99361755 -235.97639551 82.76475147 -234.25 82.53710938 C-225.33439544 81.36074489 -216.47799256 80.18138132 -207.6875 78.25 C-207.451521 77.48671387 -207.21554199 76.72342773 -206.97241211 75.93701172 C-203.85614026 65.86255109 -203.85614026 65.86255109 -202.38989258 61.16479492 C-201.97342216 59.82993031 -201.55699984 58.49505068 -201.140625 57.16015625 C-200.82819099 56.15866798 -200.82819099 56.15866798 -200.50944519 55.13694763 C-199.20094189 50.93176787 -197.92640345 46.71777205 -196.671875 42.49609375 C-196.36644775 41.48756348 -196.06102051 40.4790332 -195.74633789 39.43994141 C-195.17601613 37.55655327 -194.61742507 35.66956313 -194.07202148 33.77880859 C-193.81493408 32.94043457 -193.55784668 32.10206055 -193.29296875 31.23828125 C-193.07793701 30.51165283 -192.86290527 29.78502441 -192.64135742 29.03637695 C-191.35430604 26.62599687 -190.2439061 26.16180897 -187.6875 25.25 C-185.11303711 24.77929688 -185.11303711 24.77929688 -182.21484375 24.46875 C-181.14943359 24.34886719 -180.08402344 24.22898438 -178.98632812 24.10546875 C-177.87708984 23.98816406 -176.76785156 23.87085938 -175.625 23.75 C-168.39204307 22.96596298 -161.26050044 22.08546881 -154.12719727 20.63476562 C-151.60741941 20.23737046 -149.23406625 20.18405476 -146.6875 20.25 C-147.26502035 25.00251119 -148.20859775 29.32532156 -149.6875 33.875 C-150.12970319 35.25234856 -150.57102834 36.62997917 -151.01171875 38.0078125 C-151.26743652 38.80348633 -151.5231543 39.59916016 -151.78662109 40.41894531 C-153.51475012 45.84967273 -155.19219879 51.29633495 -156.87768555 56.74041748 C-157.88201169 59.98359504 -158.88841976 63.22612587 -159.89453125 66.46875 C-160.49220951 68.39582651 -161.08987458 70.32290711 -161.6875 72.25 C-160.94814209 72.13930176 -160.20878418 72.02860352 -159.44702148 71.91455078 C-120.67405166 66.11745642 -120.67405166 66.11745642 -114.6875 66.25 C-114.57575439 65.70617676 -114.46400879 65.16235352 -114.34887695 64.60205078 C-113.15580166 58.99597651 -111.63887969 53.57590585 -109.875 48.125 C-109.61291748 47.30459229 -109.35083496 46.48418457 -109.08081055 45.63891602 C-107.06526772 39.35337225 -104.98559007 33.0900797 -102.86328125 26.83984375 C-101.38753171 22.33414998 -100.03234476 17.79620345 -98.6875 13.25 C-92.9222513 12.39183155 -87.15646098 11.53743493 -81.39013672 10.68652344 C-79.42872024 10.39654389 -77.46745557 10.10553561 -75.50634766 9.81347656 C-72.68691693 9.39377396 -69.86696037 8.97777816 -67.046875 8.5625 C-65.73260529 8.36563599 -65.73260529 8.36563599 -64.39178467 8.16479492 C-63.16096161 7.98460815 -63.16096161 7.98460815 -61.90527344 7.80078125 C-61.18579529 7.69419189 -60.46631714 7.58760254 -59.72503662 7.4777832 C-57.6875 7.25 -57.6875 7.25 -53.6875 7.25 C-55.22139017 15.05889539 -57.58957472 22.55219818 -60.00976562 30.11962891 C-60.89415941 32.89960735 -61.75749584 35.68591807 -62.62109375 38.47241211 C-64.88260873 45.76351534 -67.23649567 53.02022185 -69.6875 60.25 C-68.21023438 59.78400391 -68.21023438 59.78400391 -66.703125 59.30859375 C-62.66223993 58.15651593 -58.6113888 57.69733978 -54.4375 57.3125 C-46.86715347 56.5514935 -39.38389184 55.48024979 -31.88183594 54.21508789 C-28.41484043 53.63861637 -25.21352874 53.25 -21.6875 53.25 C-21.52701172 51.78433594 -21.52701172 51.78433594 -21.36328125 50.2890625 C-20.73025771 45.87452704 -19.34364957 41.82243117 -17.875 37.625 C-17.32832498 36.02381335 -16.78275755 34.42224814 -16.23828125 32.8203125 C-15.97225098 32.04075195 -15.7062207 31.26119141 -15.43212891 30.45800781 C-13.30584699 24.15305909 -11.39446095 17.77878595 -9.58984375 11.375 C-9.40760254 10.72885742 -9.22536133 10.08271484 -9.03759766 9.41699219 C-8.52718268 7.59692933 -8.02317548 5.77507306 -7.51953125 3.953125 C-6.11014136 -0.62573792 -4.57071117 0.06746437 0 0 Z " fill="#FEFEFE" transform="translate(381.6875,111.75)"/>
<path d="M0 0 C0.33 0.66 0.66 1.32 1 2 C1.57621094 2.28746094 2.15242188 2.57492188 2.74609375 2.87109375 C5.5348811 4.26790405 7.66843439 6.06333181 10.0625 8.0625 C11.03316406 8.86816406 12.00382812 9.67382812 13.00390625 10.50390625 C13.99261719 11.32761719 14.98132813 12.15132812 16 13 C17.8317253 14.50196322 19.6650256 16.00200799 21.5 17.5 C43.5 35.5 65.5 53.5 87.5 71.5 C88.40363281 72.23863281 89.30726563 72.97726563 90.23828125 73.73828125 C92.11345349 75.27395979 93.98575614 76.81314768 95.85546875 78.35546875 C100.68324046 82.33088904 105.51999308 86.20945405 110.63671875 89.80859375 C111.08660156 90.20175781 111.53648437 90.59492188 112 91 C112 91.66 112 92.32 112 93 C112.66 93 113.32 93 114 93 C114.11708965 120.57393764 114.20511344 148.14783771 114.25906086 175.72197437 C114.28478156 188.52672985 114.31981435 201.33133036 114.37719727 214.13598633 C114.42722049 225.30374741 114.45933552 236.47139618 114.47044247 247.63926619 C114.47692927 253.54605281 114.49204604 259.4525183 114.52865028 265.35920143 C114.56290925 270.93326742 114.57299326 276.50688387 114.56553841 282.08104515 C114.56689971 284.11297433 114.57665203 286.14492055 114.59602737 288.17675781 C114.77595349 308.0408115 110.83874547 324.71136037 101 342 C100.45601563 342.98355469 99.91203125 343.96710938 99.3515625 344.98046875 C85.76555375 367.94413719 62.51807788 383.36601234 37 390 C27.6225433 392.3615299 18.84780154 393.44361226 9.18920898 393.41992188 C7.88821762 393.42839142 6.58722626 393.43686096 5.24681091 393.44558716 C1.72669643 393.46752423 -1.79318226 393.47074896 -5.31335568 393.46883965 C-8.26369214 393.46871891 -11.21398041 393.47732263 -14.16430324 393.48561716 C-21.12039271 393.50474189 -28.07636217 393.50777151 -35.0324707 393.50097656 C-42.19695385 393.49430759 -49.36092588 393.51733887 -56.52530533 393.55429029 C-62.69974234 393.58497418 -68.8740145 393.59634987 -75.04852623 393.59245348 C-78.72684508 393.59038869 -82.40476357 393.59582649 -86.08300972 393.62034607 C-90.17360733 393.64672627 -94.26311534 393.63289596 -98.35375977 393.61523438 C-99.56678772 393.62849762 -100.77981567 393.64176086 -102.02960205 393.65542603 C-111.14705334 393.56369975 -111.14705334 393.56369975 -114.17523193 390.55297852 C-114.7774054 389.71049561 -115.37957886 388.8680127 -116 388 C-117.1625318 387.07699873 -118.35195067 386.18605176 -119.57421875 385.34375 C-120.23212402 384.88556885 -120.8900293 384.4273877 -121.56787109 383.95532227 C-122.26734863 383.47506592 -122.96682617 382.99480957 -123.6875 382.5 C-125.21553879 381.43719652 -126.74285955 380.37336007 -128.26953125 379.30859375 C-129.05279785 378.76315918 -129.83606445 378.21772461 -130.64306641 377.65576172 C-134.41958083 375.00273491 -138.14465393 372.27984823 -141.875 369.5625 C-148.051116 365.0738914 -154.30347406 360.71856577 -160.625 356.4375 C-167.2108586 351.97553076 -173.61684777 347.3421949 -179.94189453 342.51928711 C-185.01672025 338.67500887 -190.22557604 335.0642576 -195.5 331.5 C-202.13061503 327.01927941 -208.57876504 322.37152525 -214.94140625 317.51953125 C-220.79221902 313.08780229 -226.83738405 308.97416086 -232.91821289 304.86645508 C-238.88457402 300.81579211 -244.66194007 296.5624159 -250.3984375 292.19433594 C-256.10334448 287.86898979 -261.98114089 283.87578049 -268 280 C-265.22200845 279.07400282 -263.60172526 278.87847532 -260.73882961 278.88812542 C-259.86469117 278.88860117 -258.99055272 278.88907691 -258.08992523 278.88956708 C-257.12885693 278.8952084 -256.16778863 278.90084972 -255.17759705 278.90666199 C-254.15711779 278.90862983 -253.13663853 278.91059766 -252.08523566 278.91262513 C-248.64916051 278.92037397 -245.21315147 278.93523808 -241.77709961 278.94995117 C-239.32000862 278.95677836 -236.86291621 278.96310914 -234.40582275 278.96897888 C-229.10529926 278.98233099 -223.80479449 278.99845493 -218.50428581 279.01653099 C-210.12107972 279.04473063 -201.73786879 279.06139982 -193.35462952 279.07600403 C-190.48585028 279.08112873 -187.61707113 279.08630272 -184.74829197 279.09147358 C-183.67280101 279.09340263 -183.67280101 279.09340263 -182.57558296 279.09537065 C-174.41179483 279.11010742 -166.24801075 279.12658537 -158.08422852 279.14428711 C-157.33790382 279.14590185 -156.59157912 279.1475166 -155.82263852 279.14918027 C-143.74038112 279.17569001 -131.65817963 279.21344267 -119.57596403 279.25447568 C-107.16603596 279.29626209 -94.75613731 279.32265332 -82.34614569 279.33568364 C-74.69537261 279.3442664 -67.04483759 279.36525272 -59.39414854 279.40231238 C-53.52374245 279.42953824 -47.65343178 279.43569723 -41.78295898 279.43413734 C-39.37959055 279.43683061 -36.97621831 279.44637762 -34.5729084 279.46336365 C-31.28541661 279.48558698 -27.9988236 279.48293374 -24.71128845 279.47428894 C-23.7658352 279.48662243 -22.82038195 279.49895591 -21.84627861 279.51166314 C-12.50124913 279.43472105 -4.6192399 276.49725825 2.2421875 270.06640625 C7.73590013 263.60824185 10.11369691 256.36012271 10.14717102 248.01663208 C10.15432632 246.79133789 10.16148163 245.5660437 10.16885376 244.30361938 C10.17169377 242.94866969 10.17440553 241.59371972 10.17700195 240.23876953 C10.18326952 238.80950761 10.18991658 237.3802473 10.19691467 235.95098877 C10.21791734 231.26160814 10.22831142 226.57222732 10.23828125 221.8828125 C10.2423298 220.26705788 10.24644675 218.65130343 10.25063133 217.03554916 C10.26967227 209.44618772 10.28390731 201.85683595 10.2922433 194.26745522 C10.30202116 185.51050296 10.32835944 176.75380309 10.36874419 167.99693978 C10.3989031 161.2248447 10.41371183 154.45282201 10.41702431 147.68066108 C10.41937446 143.6372347 10.42833055 139.59407831 10.45348549 135.55072403 C10.47676844 131.74704547 10.48099883 127.94381467 10.47072411 124.14008331 C10.47022873 122.74611039 10.47654976 121.35211538 10.49028015 119.95820999 C10.61152026 111.95240993 10.61152026 111.95240993 8.40812683 104.37374878 C1.83950099 97.89889564 -3.69846481 97.41720346 -12.58555603 97.48101807 C-13.74718232 97.47351681 -14.90880861 97.46601556 -16.1056357 97.458287 C-19.31665441 97.44153822 -22.52709302 97.44256565 -25.73812544 97.45119452 C-29.2057061 97.45614787 -32.67317665 97.43804396 -36.14071655 97.42277527 C-42.14402241 97.39948021 -48.14720754 97.39071396 -54.15055656 97.39188385 C-62.83030492 97.39355419 -71.50989248 97.37320724 -80.18959791 97.34752855 C-94.27263101 97.30646028 -108.35563515 97.28313787 -122.4387207 97.27099609 C-136.11713442 97.25916516 -149.79549365 97.2389637 -163.47387695 97.20751953 C-164.31735764 97.20558343 -165.16083832 97.20364733 -166.02987903 97.20165256 C-170.26147708 97.19188788 -174.49307472 97.18195879 -178.7246722 97.17194796 C-213.8164234 97.08914287 -248.90816993 97.03514639 -284 97 C-281.08889076 95.4819458 -278.85859951 94.68906653 -275.58203125 94.359375 C-274.67815674 94.26140625 -273.77428223 94.1634375 -272.84301758 94.0625 C-271.84294678 93.959375 -270.84287598 93.85625 -269.8125 93.75 C-257.93671986 92.42937234 -246.13060358 90.75423308 -234.3125 89 C-232.49741044 88.73142798 -230.68230632 88.46295428 -228.8671875 88.19458008 C-226.23768993 87.80575401 -223.60819366 87.41692065 -220.97875977 87.02766418 C-209.30778137 85.3023099 -197.61937796 83.72648577 -185.91931152 82.21191406 C-182.00848961 81.70544909 -178.097936 81.19693546 -174.1875 80.6875 C-173.38227905 80.58268311 -172.57705811 80.47786621 -171.74743652 80.36987305 C-157.95679967 78.56963604 -144.19689965 76.59058742 -130.4402771 74.54818726 C-119.47189921 72.92147162 -108.50270526 71.37915703 -97.5 70 C-83.50373965 68.24556811 -69.55469989 66.21453213 -55.60180664 64.1472168 C-46.55429303 62.80750542 -37.50548644 61.50767198 -28.4375 60.3125 C-25.29007296 59.88584811 -22.14442531 59.44822003 -19 59 C-17.84395264 58.83685303 -17.84395264 58.83685303 -16.66455078 58.67041016 C-14.43859775 58.34531312 -12.21957347 57.99086939 -10 57.625 C-8.783125 57.43164062 -7.56625 57.23828125 -6.3125 57.0390625 C-2.04820012 55.70144013 -0.14908133 54.17654425 3 51 C7.7238084 41.43731478 4.55208739 29.13912058 3.0625 19.0625 C2.88009766 17.77537109 2.69769531 16.48824219 2.50976562 15.16210938 C1.78234632 10.08075489 1.05144587 5.02578269 0 0 Z " fill="#D11862" transform="translate(398,119)"/>
<path d="M0 0 C4.87295955 0.05202448 8.26045935 0.31227053 12.3125 3.25 C18.71070869 10.18139274 19.21646477 17.16007104 20.4375 26.25 C20.71013672 28.14685547 20.71013672 28.14685547 20.98828125 30.08203125 C24.08928926 52.72172134 24.08928926 52.72172134 19.3125 59.25 C14.95014882 63.4471592 12.05590775 64.95850502 5.9375 65.921875 C4.89094238 66.09369293 4.89094238 66.09369293 3.82324219 66.26898193 C1.65571306 66.61796921 -0.51445139 66.9374077 -2.6875 67.25 C-3.97398437 67.44271484 -5.26046875 67.63542969 -6.5859375 67.83398438 C-9.8993355 68.31284768 -13.21397283 68.77056234 -16.53237915 69.21264648 C-20.42260159 69.73135015 -24.31089272 70.26416924 -28.19921875 70.796875 C-29.03257248 70.91087646 -29.86592621 71.02487793 -30.72453308 71.14233398 C-37.26591731 72.04228824 -43.79981396 72.98904587 -50.33203125 73.953125 C-51.32563156 74.09975586 -52.31923187 74.24638672 -53.34294128 74.39746094 C-55.37305854 74.69726802 -57.40316406 74.9971546 -59.43325806 75.29711914 C-77.13037909 77.91054001 -94.83482899 80.38556782 -112.59106445 82.56445312 C-121.01702601 83.60495812 -129.39840657 84.80707567 -137.78013611 86.15950012 C-145.02270159 87.32197338 -152.28348223 88.28156532 -159.5625 89.1875 C-162.28020034 89.531882 -164.99753654 89.87909366 -167.71484375 90.2265625 C-168.39158646 90.31293472 -169.06832916 90.39930695 -169.76557922 90.48829651 C-185.46524599 92.496538 -201.13404829 94.72144477 -216.79296875 97.0234375 C-218.39497383 97.25860329 -218.39497383 97.25860329 -220.02934265 97.4985199 C-225.39579847 98.28666511 -230.76168579 99.07838093 -236.12670898 99.8762207 C-238.12872955 100.17148126 -240.13076349 100.46665111 -242.1328125 100.76171875 C-243.48447762 100.96461014 -243.48447762 100.96461014 -244.8634491 101.17160034 C-251.14783583 102.0936756 -257.33802055 102.6727746 -263.6875 103.25 C-171.6175 103.58 -79.5475 103.91 15.3125 104.25 C15.3125 104.58 15.3125 104.91 15.3125 105.25 C-79.7275 105.25 -174.7675 105.25 -272.6875 105.25 C-274.0075 96.67 -275.3275 88.09 -276.6875 79.25 C-277.265 75.846875 -277.8425 72.44375 -278.4375 68.9375 C-281.49715903 49.20269923 -281.49715903 49.20269923 -277.5 43.125 C-274.00395783 38.84096102 -269.55155436 36.95227051 -264.1953125 36.08203125 C-263.16019531 35.91123047 -262.12507813 35.74042969 -261.05859375 35.56445312 C-259.98738281 35.39880859 -258.91617188 35.23316406 -257.8125 35.0625 C-256.74902344 34.88525391 -255.68554688 34.70800781 -254.58984375 34.52539062 C-249.22701007 33.6626739 -244.11889047 33.02562632 -238.6875 33.25 C-240.63748897 41.51670855 -242.64297594 49.60257002 -245.6875 57.546875 C-247.15675433 61.51845311 -248.35248213 65.56429276 -249.5625 69.62109375 C-251.18627807 74.85890566 -252.94057998 80.05217092 -254.6875 85.25 C-249.60066844 84.57876224 -244.51444522 83.90313438 -239.42871094 83.22363281 C-237.70263001 82.99361755 -235.97639551 82.76475147 -234.25 82.53710938 C-225.33439544 81.36074489 -216.47799256 80.18138132 -207.6875 78.25 C-207.451521 77.48671387 -207.21554199 76.72342773 -206.97241211 75.93701172 C-203.85614026 65.86255109 -203.85614026 65.86255109 -202.38989258 61.16479492 C-201.97342216 59.82993031 -201.55699984 58.49505068 -201.140625 57.16015625 C-200.82819099 56.15866798 -200.82819099 56.15866798 -200.50944519 55.13694763 C-199.20094189 50.93176787 -197.92640345 46.71777205 -196.671875 42.49609375 C-196.36644775 41.48756348 -196.06102051 40.4790332 -195.74633789 39.43994141 C-195.17601613 37.55655327 -194.61742507 35.66956313 -194.07202148 33.77880859 C-193.81493408 32.94043457 -193.55784668 32.10206055 -193.29296875 31.23828125 C-193.07793701 30.51165283 -192.86290527 29.78502441 -192.64135742 29.03637695 C-191.35430604 26.62599687 -190.2439061 26.16180897 -187.6875 25.25 C-185.11303711 24.77929688 -185.11303711 24.77929688 -182.21484375 24.46875 C-181.14943359 24.34886719 -180.08402344 24.22898438 -178.98632812 24.10546875 C-177.87708984 23.98816406 -176.76785156 23.87085938 -175.625 23.75 C-168.39204307 22.96596298 -161.26050044 22.08546881 -154.12719727 20.63476562 C-151.60741941 20.23737046 -149.23406625 20.18405476 -146.6875 20.25 C-147.26502035 25.00251119 -148.20859775 29.32532156 -149.6875 33.875 C-150.12970319 35.25234856 -150.57102834 36.62997917 -151.01171875 38.0078125 C-151.26743652 38.80348633 -151.5231543 39.59916016 -151.78662109 40.41894531 C-153.51475012 45.84967273 -155.19219879 51.29633495 -156.87768555 56.74041748 C-157.88201169 59.98359504 -158.88841976 63.22612587 -159.89453125 66.46875 C-160.49220951 68.39582651 -161.08987458 70.32290711 -161.6875 72.25 C-160.94814209 72.13930176 -160.20878418 72.02860352 -159.44702148 71.91455078 C-120.67405166 66.11745642 -120.67405166 66.11745642 -114.6875 66.25 C-114.57575439 65.70617676 -114.46400879 65.16235352 -114.34887695 64.60205078 C-113.15580166 58.99597651 -111.63887969 53.57590585 -109.875 48.125 C-109.61291748 47.30459229 -109.35083496 46.48418457 -109.08081055 45.63891602 C-107.06526772 39.35337225 -104.98559007 33.0900797 -102.86328125 26.83984375 C-101.38753171 22.33414998 -100.03234476 17.79620345 -98.6875 13.25 C-92.9222513 12.39183155 -87.15646098 11.53743493 -81.39013672 10.68652344 C-79.42872024 10.39654389 -77.46745557 10.10553561 -75.50634766 9.81347656 C-72.68691693 9.39377396 -69.86696037 8.97777816 -67.046875 8.5625 C-65.73260529 8.36563599 -65.73260529 8.36563599 -64.39178467 8.16479492 C-63.16096161 7.98460815 -63.16096161 7.98460815 -61.90527344 7.80078125 C-61.18579529 7.69419189 -60.46631714 7.58760254 -59.72503662 7.4777832 C-57.6875 7.25 -57.6875 7.25 -53.6875 7.25 C-55.22139017 15.05889539 -57.58957472 22.55219818 -60.00976562 30.11962891 C-60.89415941 32.89960735 -61.75749584 35.68591807 -62.62109375 38.47241211 C-64.88260873 45.76351534 -67.23649567 53.02022185 -69.6875 60.25 C-68.21023438 59.78400391 -68.21023438 59.78400391 -66.703125 59.30859375 C-62.66223993 58.15651593 -58.6113888 57.69733978 -54.4375 57.3125 C-46.86715347 56.5514935 -39.38389184 55.48024979 -31.88183594 54.21508789 C-28.41484043 53.63861637 -25.21352874 53.25 -21.6875 53.25 C-21.52701172 51.78433594 -21.52701172 51.78433594 -21.36328125 50.2890625 C-20.73025771 45.87452704 -19.34364957 41.82243117 -17.875 37.625 C-17.32832498 36.02381335 -16.78275755 34.42224814 -16.23828125 32.8203125 C-15.97225098 32.04075195 -15.7062207 31.26119141 -15.43212891 30.45800781 C-13.30584699 24.15305909 -11.39446095 17.77878595 -9.58984375 11.375 C-9.40760254 10.72885742 -9.22536133 10.08271484 -9.03759766 9.41699219 C-8.52718268 7.59692933 -8.02317548 5.77507306 -7.51953125 3.953125 C-6.11014136 -0.62573792 -4.57071117 0.06746437 0 0 Z " fill="#FEFBFC" transform="translate(381.6875,111.75)"/>
<path d="M0 0 C4.2267499 0.90000243 6.90057567 3.4597356 10.02880859 6.31103516 C11.42492573 7.51404082 12.82207995 8.71584387 14.22021484 9.91650391 C14.91131348 10.52155762 15.60241211 11.12661133 16.31445312 11.75 C19.28505811 14.31269248 22.36580678 16.72107511 25.46630859 19.12353516 C26.60194514 20.01257727 27.73736186 20.90190027 28.87255859 21.79150391 C31.30731482 23.69348309 33.74585579 25.59054481 36.18505859 27.48681641 C36.81782715 27.98036621 37.4505957 28.47391602 38.10253906 28.98242188 C39.3080406 29.92263096 40.51528502 30.86061148 41.72460938 31.79589844 C50.1581221 38.37906216 50.1581221 38.37906216 50.90380859 42.93603516 C49.90867599 49.23854164 44.0528993 52.72280666 39.34130859 56.68603516 C38.49318604 57.40158569 38.49318604 57.40158569 37.62792969 58.1315918 C33.30021804 61.75519639 28.87642983 65.22633269 24.38085938 68.63989258 C19.27234345 72.5233207 14.26910988 76.53269277 9.27734375 80.56469727 C2.01993397 86.4105652 2.01993397 86.4105652 -2.03369141 86.93603516 C-6.68634564 86.37450792 -7.79499841 85.1460469 -10.65869141 81.49853516 C-11.14987359 78.76377585 -11.33560765 76.65211922 -11.28979492 73.92602539 C-11.29695023 73.1806955 -11.30410553 72.4353656 -11.31147766 71.66744995 C-11.32833317 69.2133787 -11.30898468 66.76114232 -11.28759766 64.30712891 C-11.28842657 62.59749704 -11.29088679 60.88786526 -11.29490662 59.17823792 C-11.29776232 55.59961894 -11.28308465 52.02162666 -11.25561523 48.44311523 C-11.22150652 43.8572752 -11.2275611 39.27255365 -11.24627781 34.68665981 C-11.25684762 31.15813378 -11.24791069 27.62986789 -11.23289299 24.10136604 C-11.22771229 22.41049026 -11.22819164 20.71958731 -11.23443794 19.02871513 C-11.23989118 16.66576601 -11.21951521 14.30441712 -11.19213867 11.94165039 C-11.19866455 11.24387985 -11.20519043 10.54610931 -11.21191406 9.82719421 C-11.1454782 6.45350375 -10.86376579 4.76021796 -8.75592041 2.07052612 C-5.72526197 -0.20112265 -3.68923899 -0.17718601 0 0 Z " fill="#D11862" transform="translate(245.65869140625,264.50146484375)"/>
<path d="M0 0 C4.29148341 1.54527889 8.07196701 3.72580296 11.9453125 6.09765625 C12.59700409 6.49198349 13.24869568 6.88631073 13.9201355 7.29258728 C15.99058637 8.5456994 18.05806372 9.80360045 20.125 11.0625 C22.19923873 12.32469326 24.27413159 13.58573756 26.35128784 14.84312439 C27.64073381 15.62374472 28.92850407 16.40714136 30.21438599 17.19361877 C32.79636989 18.75734014 35.12450268 20.04150089 38 21 C37.13680262 27.3129361 35.76440891 33.45810435 33.9375 39.5625 C33.59589844 40.73941406 33.25429688 41.91632813 32.90234375 43.12890625 C30.8284589 46.25889673 30.51479061 46.48320232 27.08203125 47.3046875 C25.3927792 47.56891566 23.69780655 47.7979061 22 48 C21.05439209 48.13365967 20.10878418 48.26731934 19.13452148 48.4050293 C16.0099189 48.82993087 12.88275842 49.20287877 9.75 49.5625 C8.09979858 49.75646362 8.09979858 49.75646362 6.41625977 49.9543457 C-1.04847625 50.81674369 -8.49941175 51.53554206 -16 52 C-14.72278677 44.4774832 -12.62371292 37.44952481 -10.125 30.25 C-7.45239988 22.41630941 -4.91854545 14.60986234 -2.7890625 6.609375 C-2.06831967 4.22592841 -1.19315817 2.17881057 0 0 Z " fill="#D21D66" transform="translate(236,132)"/>
<path d="M0 0 C9.21309147 5.18617731 18.3049018 10.54762565 27.33300781 16.04980469 C28.15510742 16.54770508 28.97720703 17.04560547 29.82421875 17.55859375 C30.55729248 18.00517334 31.29036621 18.45175293 32.0456543 18.91186523 C34.10680509 20.13849357 34.10680509 20.13849357 37 21 C36.32894996 26.38981682 35.27658065 31.56567375 33.875 36.8125 C33.6996875 37.57498047 33.524375 38.33746094 33.34375 39.12304688 C32.75447234 41.28692037 32.15295102 43.07583374 31 45 C28.35015352 46.26421247 26.83294734 46.63636518 24 47 C23.08847168 47.16234131 22.17694336 47.32468262 21.23779297 47.49194336 C17.99784324 48.06308012 14.75277712 48.56983912 11.5 49.0625 C10.34902832 49.2387793 9.19805664 49.41505859 8.01220703 49.59667969 C-0.32350925 50.83654864 -8.57616245 51.72198556 -17 52 C-14.95768505 43.23298948 -12.40419159 34.67190998 -9.66601562 26.10400391 C-8.98813271 23.96251014 -8.32756095 21.81635569 -7.671875 19.66796875 C-7.45450684 18.95930664 -7.23713867 18.25064453 -7.01318359 17.52050781 C-6.41085231 15.55452063 -5.81082192 13.58782893 -5.2109375 11.62109375 C-1.99027553 1.99027553 -1.99027553 1.99027553 0 0 Z " fill="#D21C66" transform="translate(144,145)"/>
<path d="M0 0 C12.53689 6.99632336 24.76185725 14.49706007 37 22 C36.36145015 27.52675903 35.06306646 32.62367351 33.4375 37.9375 C33.08655273 39.10635742 33.08655273 39.10635742 32.72851562 40.29882812 C32.15682579 42.20057187 31.57904309 44.10048226 31 46 C18.63728874 48.2715118 6.32486789 50.36712513 -6.1875 51.60546875 C-9.81372364 51.98072345 -13.39567817 52.46029035 -17 53 C-15.14888409 44.48486682 -12.50465138 36.33484431 -9.70019531 28.09545898 C-7.47528445 21.52726314 -5.44462089 14.92594428 -3.59814453 8.24145508 C-2.70195614 5.06459728 -1.85158395 2.77737593 0 0 Z " fill="#D21D66" transform="translate(329,119)"/>
<path d="M0 0 C0.33 0.66 0.66 1.32 1 2 C126.235 2.495 126.235 2.495 254 3 C254 3.33 254 3.66 254 4 C161.6 4 69.2 4 -26 4 C-22.68705458 2.34352729 -21.25798801 1.72413127 -17.8125 1.3671875 C-17.03132813 1.28339844 -16.25015625 1.19960937 -15.4453125 1.11328125 C-14.23488281 0.99533203 -14.23488281 0.99533203 -13 0.875 C-12.19304687 0.78863281 -11.38609375 0.70226562 -10.5546875 0.61328125 C-6.99619409 0.24333887 -3.58695765 0 0 0 Z " fill="#D3226A" transform="translate(140,212)"/>
<path d="M0 0 C1.66611905 -0.042721 3.33382885 -0.04063832 5 0 C5.33 0.33 5.66 0.66 6 1 C7.33149035 1.09948075 8.6681946 1.13029295 10.00339317 1.13307858 C10.87089962 1.13731962 11.73840607 1.14156067 12.6322006 1.14593023 C13.59608752 1.1455441 14.55997445 1.14515797 15.55307007 1.14476013 C17.07638347 1.1500504 17.07638347 1.1500504 18.63047087 1.15544754 C22.06143168 1.16619228 25.49236478 1.16982548 28.92333984 1.17358398 C31.37179178 1.17988477 33.82024255 1.18665003 36.26869202 1.19384766 C41.55506574 1.20854984 46.84143423 1.22034235 52.12781906 1.22979546 C59.77440011 1.24364754 67.42094788 1.26483216 75.06750508 1.28822399 C87.47663616 1.32616981 99.88577326 1.36112872 112.29492188 1.39282227 C113.40988784 1.395673 113.40988784 1.395673 114.54737838 1.39858133 C125.09615314 1.42541342 135.64493255 1.44928585 146.19371696 1.47196633 C147.30777335 1.47436229 147.30777335 1.47436229 148.44433594 1.47680664 C149.55704039 1.47919684 149.55704039 1.47919684 150.69222371 1.48163532 C163.05123997 1.50838247 175.41022084 1.54277378 187.76919901 1.58346039 C195.39825701 1.60826684 203.02727689 1.62657592 210.65636887 1.636616 C216.49928195 1.64486572 222.3421337 1.66334653 228.18501091 1.68567657 C230.58645364 1.69317594 232.98790984 1.69723456 235.38936424 1.69767189 C238.65733584 1.69874794 241.92503697 1.71193737 245.19296265 1.72825623 C246.15238813 1.72563937 247.11181361 1.72302252 248.10031259 1.72032636 C249.40939551 1.73059955 249.40939551 1.73059955 250.74492455 1.74108028 C251.49964621 1.74281653 252.25436787 1.74455278 253.03195989 1.74634165 C255 2 255 2 258 4 C173.19 3.67 88.38 3.34 1 3 C0.67 2.01 0.34 1.02 0 0 Z " fill="#CF0D5A" transform="translate(140,212)"/>
<path d="M0 0 C0.66 0.66 1.32 1.32 2 2 C4.89223503 2.46396693 4.89223503 2.46396693 8.125 2.625 C9.76855469 2.73714844 9.76855469 2.73714844 11.4453125 2.8515625 C12.28835937 2.90054688 13.13140625 2.94953125 14 3 C14 3.33 14 3.66 14 4 C9.05 4.33 4.1 4.66 -1 5 C-0.67 3.35 -0.34 1.7 0 0 Z " fill="#D63575" transform="translate(128,192)"/>
</svg>
