<?xml version="1.0" encoding="UTF-8"?>
<svg version="1.1" xmlns="http://www.w3.org/2000/svg" width="223" height="226">
<path d="M0 0 C73.59 0 147.18 0 223 0 C223 74.58 223 149.16 223 226 C149.41 226 75.82 226 0 226 C0 151.42 0 76.84 0 0 Z " fill="#8640E2" transform="translate(0,0)"/>
<path d="M0 0 C2.64 0 5.28 0 8 0 C8 2.64 8 5.28 8 8 C9.76428345 7.99214478 9.76428345 7.99214478 11.56420898 7.98413086 C15.91202031 7.96608337 20.2598283 7.95456892 24.60766602 7.94506836 C26.4924373 7.94002756 28.37720465 7.93319502 30.26196289 7.92456055 C32.96501636 7.91248383 35.66801831 7.90676932 38.37109375 7.90234375 C39.21900986 7.89718246 40.06692596 7.89202118 40.9405365 7.88670349 C42.96071068 7.88650805 44.98077934 7.93793789 47 8 C48 9 48 9 48.0625 12.5625 C48.041875 13.696875 48.02125 14.83125 48 16 C46.576875 15.9690625 46.576875 15.9690625 45.125 15.9375 C42.09333717 15.77448174 42.09333717 15.77448174 40 17 C40 21.95 40 26.9 40 32 C37.65261719 31.98259766 37.65261719 31.98259766 35.2578125 31.96484375 C33.21354286 31.95546637 31.16927193 31.94636611 29.125 31.9375 C28.09246094 31.92912109 27.05992187 31.92074219 25.99609375 31.91210938 C25.00996094 31.90888672 24.02382812 31.90566406 23.0078125 31.90234375 C22.09660645 31.89710693 21.18540039 31.89187012 20.24658203 31.88647461 C17.96312491 31.85114435 17.96312491 31.85114435 16 33 C14.27495583 32.91169725 12.5531592 32.75665736 10.8359375 32.5703125 C3.4249955 31.88210618 -3.93683125 31.85292828 -11.375 31.875 C-12.71484468 31.87142708 -14.05468852 31.86752229 -15.39453125 31.86328125 C-16.67457031 31.86457031 -17.95460937 31.86585938 -19.2734375 31.8671875 C-20.99699463 31.86887939 -20.99699463 31.86887939 -22.75537109 31.87060547 C-25.92026779 31.99682031 -28.88394158 32.45834994 -32 33 C-34.21164491 32.91857364 -36.42174482 32.77147385 -38.625 32.5625 C-42.12386743 32.24034321 -45.48177446 32 -49 32 C-49 31.34 -49 30.68 -49 30 C-49.5775 30.33 -50.155 30.66 -50.75 31 C-53 32 -53 32 -57 32 C-57 31.34 -57 30.68 -57 30 C-55.68 30 -54.36 30 -53 30 C-53 28.35 -53 26.7 -53 25 C-52.34 25 -51.68 25 -51 25 C-50.67 26.32 -50.34 27.64 -50 29 C-49.34 28.67 -48.68 28.34 -48 28 C-48.99 26.700625 -48.99 26.700625 -50 25.375 C-52.17608477 21.70285696 -52.53182344 20.16595028 -52 16 C-51.3530635 14.3255761 -50.69040574 12.65697379 -50 11 C-50.33 10.34 -50.66 9.68 -51 9 C-50.278125 8.938125 -49.55625 8.87625 -48.8125 8.8125 C-45.15637895 7.75628725 -43.62528227 5.6925972 -41 3 C-39.0625 1.875 -39.0625 1.875 -37 2 C-34.77746258 3.49815485 -32.97435774 5.16025756 -31 7 C-30.67 6.01 -30.34 5.02 -30 4 C-28.35 4 -26.7 4 -25 4 C-25 5.32 -25 6.64 -25 8 C-16.75 8 -8.5 8 0 8 C0 5.36 0 2.72 0 0 Z " fill="#B429BE" transform="translate(152,144)"/>
<path d="M0 0 C0.33 0 0.66 0 1 0 C1.33 9.24 1.66 18.48 2 28 C7.76521328 27.16863855 7.76521328 27.16863855 11.9609375 24.26171875 C12.67266113 23.69404785 13.38438477 23.12637695 14.11767578 22.54150391 C14.86259277 21.92968262 15.60750977 21.31786133 16.375 20.6875 C17.96248916 19.41665288 19.55105484 18.14714949 21.140625 16.87890625 C22.34428711 15.91235107 22.34428711 15.91235107 23.57226562 14.92626953 C27.36616501 11.91602555 31.24079081 9.01720528 35.125 6.125 C35.81770996 5.60768311 36.51041992 5.09036621 37.22412109 4.55737305 C38.81494287 3.37005595 40.4072828 2.18477328 42 1 C42.99 1.495 42.99 1.495 44 2 C40.14383124 5.88105221 36.28426406 9.75868225 32.42163086 13.63330078 C31.11049011 14.94944281 29.80025167 16.2664844 28.4909668 17.58447266 C26.59926171 19.48842879 24.70423965 21.38903088 22.80859375 23.2890625 C22.23225693 23.87056061 21.6559201 24.45205872 21.06211853 25.05117798 C17.63238725 28.48137181 14.11023931 31.63475622 10.29188538 34.63046265 C8.65690819 36.04992904 8.65690819 36.04992904 9 39 C9.72920654 39.27255615 10.45841309 39.5451123 11.2097168 39.82592773 C13.88787345 40.95282032 16.19099986 42.23651702 18.64453125 43.78515625 C19.48564453 44.31560547 20.32675781 44.84605469 21.19335938 45.39257812 C22.05767578 45.94365234 22.92199219 46.49472656 23.8125 47.0625 C24.69615234 47.61744141 25.57980469 48.17238281 26.49023438 48.74414062 C31.3233534 51.80822612 31.3233534 51.80822612 33 53 C33 53.33 33 53.66 33 54 C26.46615702 54.24569092 20.57530981 53.32315725 14.1875 52 C12.32730691 51.62260647 10.46664757 51.24750184 8.60546875 50.875 C7.79231201 50.70742187 6.97915527 50.53984375 6.14135742 50.3671875 C3.86929444 49.91549626 3.86929444 49.91549626 1 50 C0.75878418 50.8521106 0.75878418 50.8521106 0.51269531 51.72143555 C-2.54705208 62.51675685 -5.62468037 73.2982513 -9 84 C-9.33 84 -9.66 84 -10 84 C-10.13852709 76.20688938 -9.73633492 68.56889283 -9 60.8125 C-8.90460938 59.76513672 -8.80921875 58.71777344 -8.7109375 57.63867188 C-8.47836539 55.09200731 -8.24133075 52.54584685 -8 50 C-9.19496094 50.40992188 -10.38992187 50.81984375 -11.62109375 51.2421875 C-13.22647913 51.78670418 -14.83195264 52.3309611 -16.4375 52.875 C-17.22060547 53.14441406 -18.00371094 53.41382813 -18.81054688 53.69140625 C-24.15987311 55.49652868 -29.46992196 56.85966359 -35 58 C-30.4490001 52.82127597 -24.83422408 49.58542873 -19 46 C-18.01 45.34 -17.02 44.68 -16 44 C-16 43.34 -16 42.68 -16 42 C-22.63025727 39.00096383 -29.32405232 36.18382266 -36.0625 33.4375 C-37.00416016 33.05142578 -37.94582031 32.66535156 -38.91601562 32.26757812 C-44.24723414 30.08982916 -49.596619 27.99205919 -55 26 C-51.2342697 24.64687061 -48.39882988 25.33642757 -44.546875 26.1796875 C-43.28746094 26.44910156 -42.02804688 26.71851562 -40.73046875 26.99609375 C-39.40352982 27.28853658 -38.07670757 27.58150933 -36.75 27.875 C-34.16243064 28.43957221 -31.57361809 28.99777589 -28.984375 29.5546875 C-27.83678711 29.80718262 -26.68919922 30.05967773 -25.50683594 30.31982422 C-21.70146796 31.05790241 -17.84635178 31.51920603 -14 32 C-16.97 27.38 -19.94 22.76 -23 18 C-18.9883804 18 -16.57906142 19.90487068 -13.3125 22 C-12.70599609 22.3815625 -12.09949219 22.763125 -11.47460938 23.15625 C-9.97928801 24.09818472 -8.48913407 25.04831375 -7 26 C-6.773125 24.865625 -6.54625 23.73125 -6.3125 22.5625 C-4.63205581 14.93303806 -2.24901588 7.4766902 0 0 Z " fill="#E9E7E4" transform="translate(113,42)"/>
<path d="M0 0 C2.31 0 4.62 0 7 0 C5.90109517 6.91663627 4.43430815 13.42736799 2 20 C-1.69876091 18.62712658 -4.9514476 16.93644547 -8.3125 14.875 C-9.19550781 14.33617187 -10.07851562 13.79734375 -10.98828125 13.2421875 C-11.65214844 12.83226562 -12.31601563 12.42234375 -13 12 C-12.13375 13.26457031 -12.13375 13.26457031 -11.25 14.5546875 C-10.49975807 15.66129435 -9.74977126 16.76807419 -9 17.875 C-8.2575 18.96554688 -7.515 20.05609375 -6.75 21.1796875 C-5 24 -5 24 -5 26 C-12.87718535 26.48104949 -20.21761378 24.67869134 -27.875 23 C-30.49674271 22.43440203 -33.11942665 21.87337554 -35.7421875 21.3125 C-36.8957373 21.06113281 -38.04928711 20.80976562 -39.23779297 20.55078125 C-41.85746722 19.93481688 -41.85746722 19.93481688 -44 20 C-42.48647949 20.56714722 -42.48647949 20.56714722 -40.94238281 21.14575195 C-37.19021417 22.5537347 -33.44132743 23.97028179 -29.69335938 25.3894043 C-28.07249415 26.00176355 -26.45075472 26.61181414 -24.828125 27.21948242 C-22.49243815 28.0946494 -20.16004801 28.97814192 -17.828125 29.86328125 C-17.10506165 30.13215652 -16.38199829 30.4010318 -15.63702393 30.67805481 C-12.02101324 32.06005682 -8.94306776 33.45977296 -6 36 C-7.17465807 39.52397422 -7.95764306 39.90425832 -11 41.84765625 C-11.804375 42.37037109 -12.60875 42.89308594 -13.4375 43.43164062 C-14.283125 43.96982422 -15.12875 44.50800781 -16 45.0625 C-17.66934115 46.13255786 -19.33614686 47.20658478 -21 48.28515625 C-22.11375 48.99490601 -22.11375 48.99490601 -23.25 49.71899414 C-25.13907094 50.89682991 -25.13907094 50.89682991 -26 53 C-27.98 52.67 -29.96 52.34 -32 52 C-32 51.34 -32 50.68 -32 50 C-31.236875 49.855625 -30.47375 49.71125 -29.6875 49.5625 C-26.91827092 49.0367406 -26.91827092 49.0367406 -24 48 C-24 42.72 -24 37.44 -24 32 C-29.28 32 -34.56 32 -40 32 C-40.33 29.36 -40.66 26.72 -41 24 C-43.31 24 -45.62 24 -48 24 C-48 21.36 -48 18.72 -48 16 C-44.77085248 15.97082772 -41.54173917 15.95314337 -38.3125 15.9375 C-37.40048828 15.92912109 -36.48847656 15.92074219 -35.54882812 15.91210938 C-34.66259766 15.90888672 -33.77636719 15.90566406 -32.86328125 15.90234375 C-32.05157471 15.89710693 -31.23986816 15.89187012 -30.40356445 15.88647461 C-28 16 -28 16 -25.43432617 16.53344727 C-22.13558124 17.16567087 -19.28191018 16.57916062 -16 16 C-16 13.36 -16 10.72 -16 8 C-14.51886719 8.01740234 -14.51886719 8.01740234 -13.0078125 8.03515625 C-11.72648437 8.04417969 -10.44515625 8.05320312 -9.125 8.0625 C-7.21074219 8.07990234 -7.21074219 8.07990234 -5.2578125 8.09765625 C-2.11335348 8.23176569 -2.11335348 8.23176569 0 7 C0 4.69 0 2.38 0 0 Z " fill="#535EF1" transform="translate(104,48)"/>
<path d="M0 0 C2.64 0 5.28 0 8 0 C8 2.64 8 5.28 8 8 C9.134375 7.95875 10.26875 7.9175 11.4375 7.875 C16.03663184 7.8831981 20.68608805 8.32634536 25 10 C27.45391569 13.68087353 27.22802759 16.44355588 27.125 20.6875 C27.11597656 21.38939453 27.10695312 22.09128906 27.09765625 22.81445312 C27.07413704 24.54311525 27.03826713 26.27160145 27 28 C26.071875 27.690625 26.071875 27.690625 25.125 27.375 C24.42375 27.25125 23.7225 27.1275 23 27 C22.34 27.66 21.68 28.32 21 29 C15.02283105 29.543379 15.02283105 29.543379 12 27.9375 C10.34797393 24.73669949 11.07993089 22.37358673 12 19 C15.15108082 16.21250543 18.9820711 16.84546427 23 17 C22.505 15.02 22.505 15.02 22 13 C20.35 13 18.7 13 17 13 C16.67 13.66 16.34 14.32 16 15 C14.68 15 13.36 15 12 15 C11.67 13.35 11.34 11.7 11 10 C10.34 10 9.68 10 9 10 C9 10.99 9 11.98 9 13 C7.68 13 6.36 13 5 13 C5.33 16.96 5.66 20.92 6 25 C6.99 25.33 7.98 25.66 9 26 C9 26.99 9 27.98 9 29 C6.6875 29.25 6.6875 29.25 4 29 C1.62050396 26.66540011 1.03192396 25.32860393 0.70703125 21.984375 C0.74183594 20.91703125 0.77664062 19.8496875 0.8125 18.75 C0.83957031 17.67234375 0.86664063 16.5946875 0.89453125 15.484375 C0.92933594 14.66453125 0.96414062 13.8446875 1 13 C-0.28612676 14.05978933 -0.28612676 14.05978933 -0.09765625 16.50390625 C-0.08605469 17.51324219 -0.07445312 18.52257812 -0.0625 19.5625 C-0.05347656 20.57441406 -0.04445312 21.58632812 -0.03515625 22.62890625 C-0.02355469 23.41136719 -0.01195312 24.19382813 0 25 C-0.66 25.33 -1.32 25.66 -2 26 C-2.66 25.67 -3.32 25.34 -4 25 C-4.33 25.99 -4.66 26.98 -5 28 C-8.7494089 29.24980297 -12.07705246 29.46585002 -16 29 C-18 27.6875 -18 27.6875 -19 26 C-19 25.01 -19 24.02 -19 23 C-15.125 23.875 -15.125 23.875 -14 25 C-11.66702567 25.04092937 -9.33294775 25.04241723 -7 25 C-7.33 24.01 -7.66 23.02 -8 22 C-10.03277473 21.04882642 -10.03277473 21.04882642 -12.4375 20.4375 C-16.80269058 19.19730942 -16.80269058 19.19730942 -19 17 C-18.625 13.875 -18.625 13.875 -18 11 C-16.68 10.67 -15.36 10.34 -14 10 C-14 9.34 -14 8.68 -14 8 C-9.38 8 -4.76 8 0 8 C0 5.36 0 2.72 0 0 Z " fill="#B225C9" transform="translate(152,144)"/>
<path d="M0 0 C3.86463725 0.41406828 6.12722 2.52621722 9 5 C9.33 4.01 9.66 3.02 10 2 C11.65 2 13.3 2 15 2 C15 3.98 15 5.96 15 8 C16.32 8 17.64 8 19 8 C19 8.99 19 9.98 19 11 C17.68 11 16.36 11 15 11 C15.495 16.94 15.495 16.94 16 23 C16.99 23.33 17.98 23.66 19 24 C19 24.99 19 25.98 19 27 C16.69 26.67 14.38 26.34 12 26 C12.33 26.33 12.66 26.66 13 27 C13.66 27.66 14.32 28.32 15 29 C9.14617566 31.31430265 4.20507603 30.91731673 -2.01171875 30.2890625 C-5.16319777 29.93581159 -5.16319777 29.93581159 -9 30 C-9 29.34 -9 28.68 -9 28 C-9.5775 28.33 -10.155 28.66 -10.75 29 C-13 30 -13 30 -17 30 C-17 29.34 -17 28.68 -17 28 C-15.68 28 -14.36 28 -13 28 C-13 26.35 -13 24.7 -13 23 C-12.34 23 -11.68 23 -11 23 C-10.67 24.32 -10.34 25.64 -10 27 C-9.34 26.67 -8.68 26.34 -8 26 C-8.99 24.700625 -8.99 24.700625 -10 23.375 C-12.17608477 19.70285696 -12.53182344 18.16595028 -12 14 C-11.3530635 12.3255761 -10.69040574 10.65697379 -10 9 C-10.33 8.34 -10.66 7.68 -11 7 C-9.9171875 6.9071875 -9.9171875 6.9071875 -8.8125 6.8125 C-5.1410973 5.75187255 -3.52297062 3.80330069 -1 1 C-0.67 0.67 -0.34 0.34 0 0 Z " fill="#A03CDA" transform="translate(112,146)"/>
<path d="M0 0 C0.99 0 1.98 0 3 0 C3.33 0.66 3.66 1.32 4 2 C6.52733235 2.65555119 6.52733235 2.65555119 9 3 C8.67 3.99 8.34 4.98 8 6 C6.35 6 4.7 6 3 6 C3 12.27 3 18.54 3 25 C4.65 25 6.3 25 8 25 C8 19.06 8 13.12 8 7 C9.33333333 6.33333333 10.66666667 5.66666667 12 5 C12.66 5.66 13.32 6.32 14 7 C13.505 7.515625 13.01 8.03125 12.5 8.5625 C10.43821077 11.9129075 10.59199111 14.12391554 11 18 C11.6839349 20.94572012 11.6839349 20.94572012 14 23 C16.60458195 23.7405184 19.13634352 24.18899603 21.8203125 24.54296875 C22.53960937 24.69378906 23.25890625 24.84460938 24 25 C24.495 25.99 24.495 25.99 25 27 C23.35 27 21.7 27 20 27 C20 27.33 20 27.66 20 28 C6.14 28 -7.72 28 -22 28 C-22 22.72 -22 17.44 -22 12 C-12.56338028 11.71830986 -12.56338028 11.71830986 -8 14 C-7.67 14 -7.34 14 -7 14 C-6.67 9.71 -6.34 5.42 -6 1 C-5.67 1 -5.34 1 -5 1 C-4.97111486 4.14581423 -4.95324077 7.29159469 -4.9375 10.4375 C-4.92912109 11.33533203 -4.92074219 12.23316406 -4.91210938 13.15820312 C-4.90727539 14.43920898 -4.90727539 14.43920898 -4.90234375 15.74609375 C-4.89448853 16.93223267 -4.89448853 16.93223267 -4.88647461 18.14233398 C-5 20 -5 20 -6 21 C-7.66617115 21.04063832 -9.33388095 21.042721 -11 21 C-11.33 19.68 -11.66 18.36 -12 17 C-13.32 17 -14.64 17 -16 17 C-15.39816251 19.02045442 -14.72693904 21.02111039 -14 23 C-10.98131566 24.50934217 -8.32702771 24.17510672 -5 24 C-1.93024004 22.38316985 -1.93024004 22.38316985 -1.33227539 20.14550781 C-0.99637829 17.97661454 -0.79319387 15.8638774 -0.68359375 13.671875 C-0.64169922 12.87265625 -0.59980469 12.0734375 -0.55664062 11.25 C-0.51732422 10.425 -0.47800781 9.6 -0.4375 8.75 C-0.39431641 7.90953125 -0.35113281 7.0690625 -0.30664062 6.203125 C-0.20091457 4.13559329 -0.09998705 2.06781719 0 0 Z " fill="#704BEC" transform="translate(46,148)"/>
<path d="M0 0 C4.39656173 -0.02465504 8.7930872 -0.04283842 13.18969727 -0.05493164 C14.68644918 -0.05997121 16.18319616 -0.06680287 17.67993164 -0.07543945 C19.82699807 -0.08752159 21.97399962 -0.09323191 24.12109375 -0.09765625 C26.06133423 -0.10551147 26.06133423 -0.10551147 28.04077148 -0.11352539 C31 0 31 0 32 1 C32.04092937 3.33297433 32.04241723 5.66705225 32 8 C31.05125 7.979375 30.1025 7.95875 29.125 7.9375 C26.09333717 7.77448174 26.09333717 7.77448174 24 9 C24 13.95 24 18.9 24 24 C21.03 24 18.06 24 15 24 C15 23.01 15 22.02 15 21 C14.34 21 13.68 21 13 21 C13 16.71 13 12.42 13 8 C12.34 8 11.68 8 11 8 C10.855625 7.21625 10.71125 6.4325 10.5625 5.625 C9.28463143 2.84843237 9.28463143 2.84843237 6.86328125 2.22265625 C4.58025309 1.73164391 2.31304073 1.31887599 0 1 C0 0.67 0 0.34 0 0 Z " fill="#C815B5" transform="translate(168,152)"/>
<path d="M0 0 C1.17949219 0.01804688 2.35898437 0.03609375 3.57421875 0.0546875 C4.92966797 0.08949219 4.92966797 0.08949219 6.3125 0.125 C6.6425 4.085 6.9725 8.045 7.3125 12.125 C6.6525 12.125 5.9925 12.125 5.3125 12.125 C4.9825 17.735 4.6525 23.345 4.3125 29.125 C2.6625 29.125 1.0125 29.125 -0.6875 29.125 C-0.6875 22.855 -0.6875 16.585 -0.6875 10.125 C0.9625 10.125 2.6125 10.125 4.3125 10.125 C3.9825 9.135 3.6525 8.145 3.3125 7.125 C1.29741642 6.39176204 1.29741642 6.39176204 -0.6875 6.125 C-0.6875 5.465 -0.6875 4.805 -0.6875 4.125 C-1.6775 4.125 -2.6675 4.125 -3.6875 4.125 C-3.66429688 5.36636719 -3.64109375 6.60773438 -3.6171875 7.88671875 C-3.59842269 9.5286398 -3.58022325 11.17056738 -3.5625 12.8125 C-3.54574219 13.62912109 -3.52898438 14.44574219 -3.51171875 15.28710938 C-3.47654382 19.63121279 -3.45348162 23.25615359 -5.6875 27.125 C-9.4080836 29.60538907 -11.28546571 29.58837203 -15.6875 29.125 C-18.125 27.375 -18.125 27.375 -19.6875 25.125 C-19.6875 23.805 -19.6875 22.485 -19.6875 21.125 C-18.3675 21.125 -17.0475 21.125 -15.6875 21.125 C-15.3575 22.115 -15.0275 23.105 -14.6875 24.125 C-13.0375 24.125 -11.3875 24.125 -9.6875 24.125 C-9.71106567 23.14104248 -9.71106567 23.14104248 -9.73510742 22.13720703 C-9.79733652 19.17489184 -9.83645168 16.2127139 -9.875 13.25 C-9.90013672 12.21746094 -9.92527344 11.18492187 -9.95117188 10.12109375 C-9.96083984 9.13496094 -9.97050781 8.14882812 -9.98046875 7.1328125 C-10.00403442 5.76600342 -10.00403442 5.76600342 -10.02807617 4.37158203 C-9.91568604 3.63020996 -9.8032959 2.88883789 -9.6875 2.125 C-6.05554504 -0.29630331 -4.30400652 -0.08522785 0 0 Z " fill="#8D79EF" transform="translate(49.6875,143.875)"/>
<path d="M0 0 C3.3 0.33 6.6 0.66 10 1 C10 1.33 10 1.66 10 2 C7.69 2 5.38 2 3 2 C2.773125 2.9075 2.54625 3.815 2.3125 4.75 C1.37640211 8.0492541 0.12215878 11.1085947 -1.25 14.25 C-3.98486062 20.60167334 -5.97062361 27.12021123 -7.85644531 33.76464844 C-8.09202148 34.55774414 -8.32759766 35.35083984 -8.5703125 36.16796875 C-8.77414551 36.88235107 -8.97797852 37.5967334 -9.18798828 38.33276367 C-9.45595215 38.88295166 -9.72391602 39.43313965 -10 40 C-11.485 40.495 -11.485 40.495 -13 41 C-13.73323796 43.01508358 -13.73323796 43.01508358 -14 45 C-14.66 45 -15.32 45 -16 45 C-16 42.36 -16 39.72 -16 37 C-15.34 37 -14.68 37 -14 37 C-13.67 29.08 -13.34 21.16 -13 13 C-16.3 13 -19.6 13 -23 13 C-23 12.67 -23 12.34 -23 12 C-24.65 11.67 -26.3 11.34 -28 11 C-28 10.34 -28 9.68 -28 9 C-29.98 9 -31.96 9 -34 9 C-31.28932269 7.19288179 -29.46181438 6.40268986 -26.40234375 5.4921875 C-25.51869141 5.22792969 -24.63503906 4.96367188 -23.72460938 4.69140625 C-22.80486328 4.42199219 -21.88511719 4.15257813 -20.9375 3.875 C-20.01388672 3.59785156 -19.09027344 3.32070312 -18.13867188 3.03515625 C-11.27628541 1 -11.27628541 1 -9 1 C-8.83505115 11.3734499 -9.34956362 21.6510926 -10 32 C-9.76812988 31.20827393 -9.53625977 30.41654785 -9.29736328 29.60083008 C-8.24242668 26.00397604 -7.18375356 22.40823226 -6.125 18.8125 C-5.76019531 17.56662109 -5.39539063 16.32074219 -5.01953125 15.03710938 C-4.66503906 13.83505859 -4.31054688 12.63300781 -3.9453125 11.39453125 C-3.62062988 10.28956299 -3.29594727 9.18459473 -2.96142578 8.04614258 C-2.09418585 5.29841465 -1.11120357 2.65694395 0 0 Z " fill="#5E45AC" transform="translate(114,91)"/>
<path d="M0 0 C2.4375 1.4375 2.4375 1.4375 4 4 C4.63842461 8.36014988 4.93354633 12.32485145 2.74609375 16.25 C0.10602294 18.89597701 -2.162382 18.91310229 -5.7734375 19.171875 C-9.18059459 18.90886638 -10.77785927 17.49990832 -13 15 C-14.21260877 11.36217368 -14.39544552 8.82264001 -14 5 C-9.42918794 -0.53308828 -6.99574756 -1.56801238 0 0 Z " fill="#F6F1F7" transform="translate(70,154)"/>
<path d="M0 0 C1.49080078 0.02707031 1.49080078 0.02707031 3.01171875 0.0546875 C3.77097656 0.07789063 4.53023437 0.10109375 5.3125 0.125 C7.9299553 4.67663914 8.10913715 8.98835003 7.3125 14.125 C5.25 17.25 5.25 17.25 2.3125 19.125 C-1.1875 19.75 -1.1875 19.75 -4.6875 19.125 C-7.31766161 16.9522578 -9.16086894 15.17826212 -10.6875 12.125 C-10.94241388 8.2163205 -10.92039019 5.41557502 -8.6875 2.125 C-5.26655758 -0.15562828 -4.00562778 -0.09425007 0 0 Z " fill="#F7EBF8" transform="translate(110.6875,153.875)"/>
<path d="M0 0 C1.65 0 3.3 0 5 0 C5 8.58 5 17.16 5 26 C3.35 26 1.7 26 0 26 C0 22.04 0 18.08 0 14 C-3.96 14 -7.92 14 -12 14 C-12 17.63 -12 21.26 -12 25 C-13.32 25 -14.64 25 -16 25 C-16 17.08 -16 9.16 -16 1 C-14.68 1 -13.36 1 -12 1 C-12 4.3 -12 7.6 -12 11 C-8.04 11 -4.08 11 0 11 C0 7.37 0 3.74 0 0 Z " fill="#FCF8FA" transform="translate(93,147)"/>
<path d="M0 0 C1.17755859 0.11408203 1.17755859 0.11408203 2.37890625 0.23046875 C4.4375 0.8125 4.4375 0.8125 6.4375 3.8125 C6.57971065 6.41495498 6.62552932 8.90367684 6.5625 11.5 C6.55347656 12.20189453 6.54445312 12.90378906 6.53515625 13.62695312 C6.51163704 15.35561525 6.47576713 17.08410145 6.4375 18.8125 C5.509375 18.503125 5.509375 18.503125 4.5625 18.1875 C3.86125 18.06375 3.16 17.94 2.4375 17.8125 C1.7775 18.4725 1.1175 19.1325 0.4375 19.8125 C-5.53966895 20.355879 -5.53966895 20.355879 -8.5625 18.75 C-10.21452607 15.54919949 -9.48256911 13.18608673 -8.5625 9.8125 C-5.41141918 7.02500543 -1.5804289 7.65796427 2.4375 7.8125 C2.1075 6.4925 1.7775 5.1725 1.4375 3.8125 C-0.2125 3.8125 -1.8625 3.8125 -3.5625 3.8125 C-3.8925 4.4725 -4.2225 5.1325 -4.5625 5.8125 C-5.8825 5.8125 -7.2025 5.8125 -8.5625 5.8125 C-8.25 3.9375 -8.25 3.9375 -7.5625 1.8125 C-4.29333718 -0.36694188 -3.69969614 -0.42055854 0 0 Z " fill="#F4DFF1" transform="translate(172.5625,153.1875)"/>
<path d="M0 0 C0.86625 0.2784375 0.86625 0.2784375 1.75 0.5625 C4.22488597 1.04372783 5.60985476 0.67787733 8 0 C7.98839844 0.97582031 7.97679688 1.95164063 7.96484375 2.95703125 C7.95582031 4.22933594 7.94679688 5.50164063 7.9375 6.8125 C7.92589844 8.07707031 7.91429688 9.34164062 7.90234375 10.64453125 C7.83840884 13.99605237 7.83840884 13.99605237 9 17 C8.67 17.66 8.34 18.32 8 19 C8.99 19 9.98 19 11 19 C11.33 18.01 11.66 17.02 12 16 C13.65 16.33 15.3 16.66 17 17 C17.33 18.32 17.66 19.64 18 21 C16.68 21.33 15.36 21.66 14 22 C14 22.66 14 23.32 14 24 C12.68 24.33 11.36 24.66 10 25 C10 25.66 10 26.32 10 27 C9.34 27 8.68 27 8 27 C7.67 27.66 7.34 28.32 7 29 C4 27 4 27 3.47583008 24.56982422 C3.40775146 23.5748291 3.33967285 22.57983398 3.26953125 21.5546875 C3.18896484 20.47832031 3.10839844 19.40195312 3.02539062 18.29296875 C2.95513672 17.16503906 2.88488281 16.03710938 2.8125 14.875 C2.73064453 13.73933594 2.64878906 12.60367188 2.56445312 11.43359375 C2.36369847 8.62302854 2.17611816 5.81219909 2 3 C1.01 3.495 1.01 3.495 0 4 C0 2.68 0 1.36 0 0 Z " fill="#734DEB" transform="translate(112,40)"/>
<path d="M0 0 C3.63 0 7.26 0 11 0 C11 0.66 11 1.32 11 2 C9.68 2.33 8.36 2.66 7 3 C7 4.98 7 6.96 7 9 C10.6125362 10.84827434 14.2089881 12.55049545 18 14 C18 14.99 18 15.98 18 17 C11.72307692 18.35384615 11.72307692 18.35384615 8.0625 16.5625 C7.381875 16.046875 6.70125 15.53125 6 15 C6.99 16.98 7.98 18.96 9 21 C5.89656201 19.79310745 2.98806107 18.49403054 0 17 C0 13.04 0 9.08 0 5 C1.32 5 2.64 5 4 5 C4 4.01 4 3.02 4 2 C2.68 2 1.36 2 0 2 C0 1.34 0 0.68 0 0 Z " fill="#A836CF" transform="translate(127,152)"/>
<path d="M0 0 C0.33 0 0.66 0 1 0 C1.02888514 3.14581423 1.04675923 6.29159469 1.0625 9.4375 C1.07087891 10.33533203 1.07925781 11.23316406 1.08789062 12.15820312 C1.09272461 13.43920898 1.09272461 13.43920898 1.09765625 14.74609375 C1.10551147 15.93223267 1.10551147 15.93223267 1.11352539 17.14233398 C1 19 1 19 0 20 C-1.66617115 20.04063832 -3.33388095 20.042721 -5 20 C-5.33 18.68 -5.66 17.36 -6 16 C-7.32 16.33 -8.64 16.66 -10 17 C-9.55296014 21.47883696 -9.55296014 21.47883696 -7 25 C-7 25.66 -7 26.32 -7 27 C-9.97 27 -12.94 27 -16 27 C-16 21.72 -16 16.44 -16 11 C-6.56338028 10.71830986 -6.56338028 10.71830986 -2 13 C-1.67 13 -1.34 13 -1 13 C-0.67 8.71 -0.34 4.42 0 0 Z " fill="#644DF0" transform="translate(40,149)"/>
<path d="M0 0 C2.375 1.875 2.375 1.875 4 4 C4 4.66 4 5.32 4 6 C2.68 6 1.36 6 0 6 C-0.33 5.34 -0.66 4.68 -1 4 C-2.65 4 -4.3 4 -6 4 C-6.33 4.99 -6.66 5.98 -7 7 C-5.93458984 7.30744141 -5.93458984 7.30744141 -4.84765625 7.62109375 C-3.46900391 8.02521484 -3.46900391 8.02521484 -2.0625 8.4375 C-1.14597656 8.70433594 -0.22945312 8.97117188 0.71484375 9.24609375 C3 10 3 10 4 11 C4.04092937 13.33297433 4.04241723 15.66705225 4 18 C0.06393081 20.62404613 -3.42590939 20.36302306 -8 20 C-10 18.6875 -10 18.6875 -11 17 C-11 16.01 -11 15.02 -11 14 C-7.125 14.875 -7.125 14.875 -6 16 C-3.66702567 16.04092937 -1.33294775 16.04241723 1 16 C0.67 15.01 0.34 14.02 0 13 C-2.03277473 12.04882642 -2.03277473 12.04882642 -4.4375 11.4375 C-8.80269058 10.19730942 -8.80269058 10.19730942 -11 8 C-10.875 5 -10.875 5 -10 2 C-6.97469326 -0.46506475 -3.77765451 -0.47220681 0 0 Z " fill="#F4E6F5" transform="translate(144,153)"/>
<path d="M0 0 C0.33 1.32 0.66 2.64 1 4 C0.34 4 -0.32 4 -1 4 C-0.67 4.66 -0.34 5.32 0 6 C0.5775 5.01 1.155 4.02 1.75 3 C2.4925 2.01 3.235 1.02 4 0 C7.33333333 0 10.66666667 0 14 0 C14 0.66 14 1.32 14 2 C12.68 2.33 11.36 2.66 10 3 C10 6.63 10 10.26 10 14 C6.04 14 2.08 14 -2 14 C-2 10.7 -2 7.4 -2 4 C-3.32 3.67 -4.64 3.34 -6 3 C-4.02 3 -2.04 3 0 3 C0 2.01 0 1.02 0 0 Z " fill="#8E5BE7" transform="translate(83,144)"/>
<path d="M0 0 C0.99 0 1.98 0 3 0 C3.04898438 0.83144531 3.09796875 1.66289062 3.1484375 2.51953125 C3.22320312 3.60621094 3.29796875 4.69289062 3.375 5.8125 C3.44460937 6.89144531 3.51421875 7.97039062 3.5859375 9.08203125 C3.81195733 12.18626186 3.81195733 12.18626186 6 15 C8.56282742 15.72965366 8.56282742 15.72965366 11 16 C11 16.99 11 17.98 11 19 C-0.22 19 -11.44 19 -23 19 C-23 18.34 -23 17.68 -23 17 C-24.32 16.67 -25.64 16.34 -27 16 C-26.67 15.34 -26.34 14.68 -26 14 C-23.69 14.66 -21.38 15.32 -19 16 C-19 15.34 -19 14.68 -19 14 C-18.01 14.33 -17.02 14.66 -16 15 C-14.33541327 15.09308544 -12.66718003 15.12996185 -11 15.125 C-9.700625 15.12886719 -9.700625 15.12886719 -8.375 15.1328125 C-5.84988305 15.09594205 -5.84988305 15.09594205 -3 14 C-2.67 13.34 -2.34 12.68 -2 12 C-1.01 12 -0.02 12 1 12 C1.33 8.37 1.66 4.74 2 1 C1.34 0.67 0.68 0.34 0 0 Z " fill="#A82ECA" transform="translate(150,157)"/>
<path d="M0 0 C1.32 0 2.64 0 4 0 C4.11601004 3.60389664 4.18718408 7.20731467 4.25 10.8125 C4.28351562 11.83666016 4.31703125 12.86082031 4.3515625 13.91601562 C4.36445312 14.89892578 4.37734375 15.88183594 4.390625 16.89453125 C4.41157227 17.80050049 4.43251953 18.70646973 4.45410156 19.63989258 C4 22 4 22 2.19433594 23.79174805 C-1.03989355 25.57258936 -3.37443662 25.45319542 -7 25 C-9.4375 23.25 -9.4375 23.25 -11 21 C-11 19.68 -11 18.36 -11 17 C-9.68 17 -8.36 17 -7 17 C-6.67 17.99 -6.34 18.98 -6 20 C-4.35 20 -2.7 20 -1 20 C-0.67 13.4 -0.34 6.8 0 0 Z " fill="#F7F5F9" transform="translate(41,148)"/>
<path d="M0 0 C2.31 0 4.62 0 7 0 C5.90109517 6.91663627 4.43430815 13.42736799 2 20 C-0.3125 19.375 -0.3125 19.375 -3 18 C-4.625 15.0625 -4.625 15.0625 -6 12 C-6.99 11.01 -7.98 10.02 -9 9 C-6.03 8.34 -3.06 7.68 0 7 C0 4.69 0 2.38 0 0 Z " fill="#6654EA" transform="translate(104,48)"/>
<path d="M0 0 C2.64 0 5.28 0 8 0 C8 0.66 8 1.32 8 2 C8.639375 2.639375 9.27875 3.27875 9.9375 3.9375 C12 6 12 6 13 9 C9.91489173 7.80023567 6.94952958 6.49997444 4 5 C4.5053125 5.77085938 5.010625 6.54171875 5.53125 7.3359375 C6.1809375 8.33882812 6.830625 9.34171875 7.5 10.375 C8.1496875 11.37273437 8.799375 12.37046875 9.46875 13.3984375 C11 16 11 16 11 18 C2.42857143 18.28571429 2.42857143 18.28571429 -1 16 C0.32 15.67 1.64 15.34 3 15 C2.34 13.35 1.68 11.7 1 10 C-0.65 10.33 -2.3 10.66 -4 11 C-4.33 10.34 -4.66 9.68 -5 9 C-3.35 8.67 -1.7 8.34 0 8 C0 5.36 0 2.72 0 0 Z " fill="#615AE8" transform="translate(88,56)"/>
<path d="M0 0 C0.99 0.33 1.98 0.66 3 1 C3 5.29 3 9.58 3 14 C-1.2099725 15.683989 -2.78952566 16.24059853 -7 16 C-6.67 15.34 -6.34 14.68 -6 14 C-8.31 14.33 -10.62 14.66 -13 15 C-13 13.02 -13 11.04 -13 9 C-12.14535156 8.81824219 -11.29070312 8.63648437 -10.41015625 8.44921875 C-8.75306641 8.07216797 -8.75306641 8.07216797 -7.0625 7.6875 C-5.40927734 7.32205078 -5.40927734 7.32205078 -3.72265625 6.94921875 C-2.37494141 6.47935547 -2.37494141 6.47935547 -1 6 C-0.67 5.01 -0.34 4.02 0 3 C-0.66 3 -1.32 3 -2 3 C-2 2.34 -2 1.68 -2 1 C-1.34 0.67 -0.68 0.34 0 0 Z " fill="#8E39D9" transform="translate(149,88)"/>
<path d="M0 0 C5.40812046 0.64340983 10.09841822 2.39060719 15.125 4.375 C15.92292969 4.67921875 16.72085938 4.9834375 17.54296875 5.296875 C21.41842174 6.81082492 24.83605963 8.212312 28 11 C26.82534193 14.52397422 26.04235694 14.90425832 23 16.84765625 C22.195625 17.37037109 21.39125 17.89308594 20.5625 18.43164062 C19.2940625 19.23891602 19.2940625 19.23891602 18 20.0625 C16.33065885 21.13255786 14.66385314 22.20658478 13 23.28515625 C11.88625 23.99490601 11.88625 23.99490601 10.75 24.71899414 C8.86092906 25.89682991 8.86092906 25.89682991 8 28 C6.02 27.67 4.04 27.34 2 27 C2 26.34 2 25.68 2 25 C2.7425 24.855625 3.485 24.71125 4.25 24.5625 C6.52027739 24.09812508 8.75759479 23.58136431 11 23 C11 22.01 11 21.02 11 20 C11.99 20 12.98 20 14 20 C13.67 19.01 13.34 18.02 13 17 C15 16 15 16 19 16 C19.66 15.34 20.32 14.68 21 14 C21.99 14 22.98 14 24 14 C21.65077089 11.35501672 19.30656028 10.00972813 16.11328125 8.51953125 C15.17548828 8.07802734 14.23769531 7.63652344 13.27148438 7.18164062 C12.29501953 6.72982422 11.31855469 6.27800781 10.3125 5.8125 C9.32443359 5.34908203 8.33636719 4.88566406 7.31835938 4.40820312 C4.88155247 3.26631776 2.44209842 2.13051303 0 1 C0 0.67 0 0.34 0 0 Z " fill="#6F62B7" transform="translate(70,73)"/>
<path d="M0 0 C3.81791204 0.93646899 6.76304148 2.45311001 10.1875 4.375 C11.33992188 5.01566406 12.49234375 5.65632813 13.6796875 6.31640625 C14.98292969 7.05697266 14.98292969 7.05697266 16.3125 7.8125 C16.3125 8.4725 16.3125 9.1325 16.3125 9.8125 C12.89418085 12.3518228 10.55473102 13.1761198 6.3125 12.8125 C6.3125 13.8025 6.3125 14.7925 6.3125 15.8125 C5.3225 15.8125 4.3325 15.8125 3.3125 15.8125 C2.9825 16.8025 2.6525 17.7925 2.3125 18.8125 C2.3125 13.5325 2.3125 8.2525 2.3125 2.8125 C-0.3275 2.8125 -2.9675 2.8125 -5.6875 2.8125 C-3.85264447 0.26408954 -3.20584416 -0.22366355 0 0 Z " fill="#6256F0" transform="translate(77.6875,77.1875)"/>
<path d="M0 0 C1.32 0 2.64 0 4 0 C4 1.98 4 3.96 4 6 C5.32 6 6.64 6 8 6 C8 6.99 8 7.98 8 9 C6.68 9 5.36 9 4 9 C4.33 12.96 4.66 16.92 5 21 C5.99 21.33 6.98 21.66 8 22 C8 22.99 8 23.98 8 25 C5.6568787 24.74438677 3.32156597 24.40729228 1 24 C-0.44207941 21.11584117 -0.09394887 18.58278472 -0.0625 15.375 C-0.05347656 14.18648437 -0.04445313 12.99796875 -0.03515625 11.7734375 C-0.02355469 10.85820312 -0.01195313 9.94296875 0 9 C-1.32 9 -2.64 9 -4 9 C-4 8.01 -4 7.02 -4 6 C-2.68 6 -1.36 6 0 6 C0 4.02 0 2.04 0 0 Z " fill="#F8EFF8" transform="translate(123,148)"/>
<path d="M0 0 C1.65 0 3.3 0 5 0 C5 8.58 5 17.16 5 26 C3.35 26 1.7 26 0 26 C0 17.42 0 8.84 0 0 Z " fill="#EADCF5" transform="translate(93,147)"/>
<path d="M0 0 C1.65 0 3.3 0 5 0 C5.92449827 5.97157399 5.9888273 11.48241459 5.5625 17.5 C5.51029297 18.32242188 5.45808594 19.14484375 5.40429688 19.9921875 C5.27619538 21.99522899 5.13904939 23.99768871 5 26 C4.67 25.34 4.34 24.68 4 24 C3.34 24 2.68 24 2 24 C2.061875 25.423125 2.061875 25.423125 2.125 26.875 C2 30 2 30 0 32 C0 21.44 0 10.88 0 0 Z " fill="#7947EA" transform="translate(96,104)"/>
<path d="M0 0 C1.32 0 2.64 0 4 0 C4 1.98 4 3.96 4 6 C5.32 6 6.64 6 8 6 C8 6.99 8 7.98 8 9 C6.68 9 5.36 9 4 9 C4.33 12.96 4.66 16.92 5 21 C5.99 21.33 6.98 21.66 8 22 C8 22.99 8 23.98 8 25 C5.6875 25.25 5.6875 25.25 3 25 C0.62050396 22.66540011 0.03192396 21.32860393 -0.29296875 17.984375 C-0.25816406 16.91703125 -0.22335938 15.8496875 -0.1875 14.75 C-0.16042969 13.67234375 -0.13335937 12.5946875 -0.10546875 11.484375 C-0.07066406 10.66453125 -0.03585938 9.8446875 0 9 C-0.99 9 -1.98 9 -3 9 C-3 8.01 -3 7.02 -3 6 C-2.01 6 -1.02 6 0 6 C0 4.02 0 2.04 0 0 Z " fill="#F7EDF6" transform="translate(153,148)"/>
<path d="M0 0 C0.33 0 0.66 0 1 0 C1.66 7.92 2.32 15.84 3 24 C3.99 24 4.98 24 6 24 C6.66 24 7.32 24 8 24 C8 23.34 8 22.68 8 22 C9.32 21.67 10.64 21.34 12 21 C12 20.34 12 19.68 12 19 C13.0725 18.401875 14.145 17.80375 15.25 17.1875 C19.31283286 14.85650095 22.36215313 12.9567703 25 9 C25.66 9.33 26.32 9.66 27 10 C27 9.01 27 8.02 27 7 C27.5775 6.896875 28.155 6.79375 28.75 6.6875 C31.32049158 5.90207202 32.93657284 4.69495803 35 3 C35.66 3.33 36.32 3.66 37 4 C31.02826896 8.70357921 25.02529102 13.36525475 19 18 C18.29182129 18.5480127 17.58364258 19.09602539 16.85400391 19.66064453 C14.97748027 21.10359317 13.08636125 22.52414009 11.1875 23.9375 C10.63239746 24.36788574 10.07729492 24.79827148 9.50537109 25.24169922 C7.91796875 26.40234375 7.91796875 26.40234375 5 28 C3.35 27.67 1.7 27.34 0 27 C0 18.09 0 9.18 0 0 Z " fill="#7E6B66" transform="translate(114,43)"/>
<path d="M0 0 C1.65 0.33 3.3 0.66 5 1 C5.33 1.99 5.66 2.98 6 4 C6.99 4.66 7.98 5.32 9 6 C8.6875 9.375 8.6875 9.375 8 13 C5 15 5 15 2.4375 14.8125 C0 14 0 14 -2 11 C-2.36703674 6.7790775 -1.79885972 3.82257691 0 0 Z " fill="#A04BD8" transform="translate(106,155)"/>
<path d="M0 0 C3.86463725 0.41406828 6.12722 2.52621722 9 5 C9.66 4.01 10.32 3.02 11 2 C11 3.98 11 5.96 11 8 C9.68 8 8.36 8 7 8 C7.185625 8.495 7.37125 8.99 7.5625 9.5 C8.20139296 13.15081689 7.54905291 16.33964724 7 20 C6.67 20 6.34 20 6 20 C5.34 16.37 4.68 12.74 4 9 C2.246875 9 0.49375 9 -1.3125 9 C-4.20833333 9 -7.10416667 9 -10 9 C-10.33 8.34 -10.66 7.68 -11 7 C-10.278125 6.938125 -9.55625 6.87625 -8.8125 6.8125 C-5.1410973 5.75187255 -3.52297062 3.80330069 -1 1 C-0.67 0.67 -0.34 0.34 0 0 Z " fill="#B466D9" transform="translate(112,146)"/>
<path d="M0 0 C2.4375 0.8125 2.4375 0.8125 4.4375 2.8125 C4.99550294 9.843337 4.99550294 9.843337 3.25 12.875 C1.4375 13.8125 1.4375 13.8125 -1.125 13.6875 C-3.5625 12.8125 -3.5625 12.8125 -5.5625 9.8125 C-6.10580065 3.72753268 -6.10580065 3.72753268 -4.375 0.8125 C-2.5625 -0.1875 -2.5625 -0.1875 0 0 Z " fill="#794CE8" transform="translate(65.5625,156.1875)"/>
<path d="M0 0 C0.66 0 1.32 0 2 0 C2 4.29 2 8.58 2 13 C2.66 13 3.32 13 4 13 C4 13.99 4 14.98 4 16 C3.08476562 15.98839844 2.16953125 15.97679687 1.2265625 15.96484375 C0.03804687 15.95582031 -1.15046875 15.94679687 -2.375 15.9375 C-3.55835938 15.92589844 -4.74171875 15.91429687 -5.9609375 15.90234375 C-8.91921521 15.78533407 -8.91921521 15.78533407 -11 17 C-13.3494053 16.39239518 -15.68529088 15.72870472 -18 15 C-18 13.35 -18 11.7 -18 10 C-18.99 9.67 -19.98 9.34 -21 9 C-15.25 9.75 -15.25 9.75 -13 12 C-8.66356399 12.31537716 -6.67346771 12.44897847 -3 10 C-3 10.66 -3 11.32 -3 12 C-2.01 12 -1.02 12 0 12 C0 8.04 0 4.08 0 0 Z " fill="#C923BE" transform="translate(179,160)"/>
<path d="M0 0 C1.75 0.8125 1.75 0.8125 2.75 2.8125 C4.73 2.8125 6.71 2.8125 8.75 2.8125 C5.20350569 6.35899431 -0.02750264 7.08211421 -4.75 8.5 C-5.82121094 8.83322266 -6.89242187 9.16644531 -7.99609375 9.50976562 C-9.01832031 9.81978516 -10.04054688 10.12980469 -11.09375 10.44921875 C-12.03412109 10.73498779 -12.97449219 11.02075684 -13.94335938 11.31518555 C-16.25 11.8125 -16.25 11.8125 -18.25 10.8125 C-16.52278316 9.53901788 -14.79313762 8.26882943 -13.0625 7 C-12.09957031 6.29230469 -11.13664062 5.58460937 -10.14453125 4.85546875 C-2.92037195 -0.24336433 -2.92037195 -0.24336433 0 0 Z " fill="#E4DBCD" transform="translate(96.25,88.1875)"/>
<path d="M0 0 C3.3 0 6.6 0 10 0 C10 0.99 10 1.98 10 3 C8.35 3.66 6.7 4.32 5 5 C4.67 9.62 4.34 14.24 4 19 C2.68 19 1.36 19 0 19 C0 12.73 0 6.46 0 0 Z " fill="#F5EAF5" transform="translate(183,154)"/>
<path d="M0 0 C0 3 0 3 -1.22167969 4.53051758 C-1.78274414 5.06314209 -2.34380859 5.5957666 -2.921875 6.14453125 C-3.53546875 6.73943359 -4.1490625 7.33433594 -4.78125 7.94726562 C-5.4309375 8.56279297 -6.080625 9.17832031 -6.75 9.8125 C-11.1205674 13.97431062 -14.71531898 17.89294562 -18 23 C-19.66796875 24.5390625 -19.66796875 24.5390625 -21.1875 25.625 C-24.06137758 27.69199739 -24.06137758 27.69199739 -24.9375 30.1875 C-25.1480194 32.10210449 -25.1480194 32.10210449 -24 34 C-25.98 33.67 -27.96 33.34 -30 33 C-29.91140306 29.10173477 -28.55428364 27.28414126 -25.859375 24.6875 C-24.49888256 23.44804841 -23.12846917 22.21942718 -21.75 21 C-20.29512707 19.67770188 -18.84203167 18.35344565 -17.390625 17.02734375 C-16.65779297 16.3607373 -15.92496094 15.69413086 -15.16992188 15.00732422 C-11.85958279 11.9450371 -8.67302637 8.766019 -5.5 5.5625 C-4.6642041 4.72041992 -4.6642041 4.72041992 -3.81152344 3.86132812 C-2.53879397 2.57641554 -1.26901974 1.28857655 0 0 Z " fill="#876E50" transform="translate(151,49)"/>
<path d="M0 0 C3.3 0.33 6.6 0.66 10 1 C10 1.33 10 1.66 10 2 C7.69 2 5.38 2 3 2 C2.773125 2.9075 2.54625 3.815 2.3125 4.75 C1.35402651 8.12490664 0.0721671 11.27781869 -1.3125 14.5 C-4.30994967 21.52973315 -6.66610778 28.73017403 -9 36 C-10.40191338 32.21374801 -9.57025012 29.67120675 -8.41796875 25.87890625 C-8.06283203 24.69619141 -7.70769531 23.51347656 -7.34179688 22.29492188 C-6.77041992 20.44737305 -6.77041992 20.44737305 -6.1875 18.5625 C-5.81818359 17.33466797 -5.44886719 16.10683594 -5.06835938 14.84179688 C-3.54339035 9.81241069 -2.01765784 4.85665814 0 0 Z " fill="#675244" transform="translate(114,91)"/>
<path d="M0 0 C4.455 0.99 4.455 0.99 9 2 C7.68 2.33 6.36 2.66 5 3 C5.33 3.66 5.66 4.32 6 5 C6.144375 5.99 6.28875 6.98 6.4375 8 C6.72715994 11.10361588 6.72715994 11.10361588 9 13 C9 13.66 9 14.32 9 15 C6.03 15 3.06 15 0 15 C0 10.05 0 5.1 0 0 Z " fill="#6A53F9" transform="translate(24,161)"/>
<path d="M0 0 C3.96 0 7.92 0 12 0 C12 0.33 12 0.66 12 1 C8.7 1.33 5.4 1.66 2 2 C1.67 4.97 1.34 7.94 1 11 C0.01 11 -0.98 11 -2 11 C-2.08226668 14.04386724 -1.97608217 16.07175348 -1 19 C-1.99 19 -2.98 19 -4 19 C-5.0260734 20.31337396 -6.02727325 21.64664105 -7 23 C-7.66 23 -8.32 23 -9 23 C-7.55892962 17.35580767 -5.42471225 12.2860585 -3 7 C-1.98755041 4.67179315 -0.99409683 2.33612755 0 0 Z " fill="#7C46D4" transform="translate(117,93)"/>
<path d="M0 0 C0 3.10551666 -0.5393715 4.35261084 -2 7 C-1.34 7.33 -0.68 7.66 0 8 C-1.49740933 12.75647668 -1.49740933 12.75647668 -3 15 C-6.6875 16.4375 -6.6875 16.4375 -10 17 C-9.67 17.99 -9.34 18.98 -9 20 C-9.66 20 -10.32 20 -11 20 C-12.1875 18.3125 -12.1875 18.3125 -13 16 C-11.67858608 12.89079079 -10.27596749 11.21786907 -7.625 9.125 C-4.30818003 6.43995526 -2.37892332 3.53440037 0 0 Z " fill="#7F46D9" transform="translate(138,64)"/>
<path d="M0 0 C0.86625 0.2784375 0.86625 0.2784375 1.75 0.5625 C4.22488597 1.04372783 5.60985476 0.67787733 8 0 C8.23755746 5.82015773 7.64831956 10.37632152 6 16 C5.54820791 19.65901942 5.25271688 23.32230428 5 27 C4.67 27 4.34 27 4 27 C3.34 19.08 2.68 11.16 2 3 C1.01 3.495 1.01 3.495 0 4 C0 2.68 0 1.36 0 0 Z " fill="#6A51E3" transform="translate(112,40)"/>
<path d="M0 0 C3.58672493 0.27590192 6.31406497 0.59547422 9.4375 2.4375 C11.83888479 6.37577106 11.79956796 10.50513146 11 15 C9.59765625 17.3125 9.59765625 17.3125 8 19 C7.34 19 6.68 19 6 19 C6 18.34 6 17.68 6 17 C5.34 16.67 4.68 16.34 4 16 C4.66 16 5.32 16 6 16 C6.027193 14.41676312 6.04648306 12.83338938 6.0625 11.25 C6.07990234 9.92742187 6.07990234 9.92742187 6.09765625 8.578125 C6.00826198 6.2181162 5.66912821 4.25501476 5 2 C3.35 1.67 1.7 1.34 0 1 C0 0.67 0 0.34 0 0 Z " fill="#EAE1F3" transform="translate(63,153)"/>
<path d="M0 0 C2.475 0.99 2.475 0.99 5 2 C5.66 1.34 6.32 0.68 7 0 C7 2.64 7 5.28 7 8 C3.37 8 -0.26 8 -4 8 C-4 6.35 -4 4.7 -4 3 C-2.68 3 -1.36 3 0 3 C0 2.01 0 1.02 0 0 Z " fill="#8241EA" transform="translate(86,149)"/>
<path d="M0 0 C1.62580966 0.11398665 3.25067157 0.24155659 4.875 0.375 C5.77992187 0.44460937 6.68484375 0.51421875 7.6171875 0.5859375 C10 1 10 1 12 3 C14.60280568 2.67958603 14.60280568 2.67958603 17 2 C17.33 2.99 17.66 3.98 18 5 C17.01 5.495 17.01 5.495 16 6 C15.34 5.67 14.68 5.34 14 5 C14.34786708 6.97536745 14.34786708 6.97536745 15 9 C15.66 9.33 16.32 9.66 17 10 C16.01 10.33 15.02 10.66 14 11 C11 9 11 9 10.3125 6.375 C10.209375 5.59125 10.10625 4.8075 10 4 C9.236875 4.20625 8.47375 4.4125 7.6875 4.625 C5 5 5 5 2 3 C1.34 2.67 0.68 2.34 0 2 C0 1.34 0 0.68 0 0 Z " fill="#EDEEEF" transform="translate(86,73)"/>
<path d="M0 0 C1.98567708 0.55338542 3.97135417 1.10677083 5.95703125 1.66015625 C8.19244159 2.19563817 8.19244159 2.19563817 11 1 C13.35953094 3.35953094 13.49141413 4.77895617 14 8 C3.44191344 8.18451025 3.44191344 8.18451025 -1 7 C-1 6.67 -1 6.34 -1 6 C0.258125 5.979375 1.51625 5.95875 2.8125 5.9375 C3.52019531 5.92589844 4.22789063 5.91429688 4.95703125 5.90234375 C7 6 7 6 10 7 C10 6.34 10 5.68 10 5 C8.783125 5.020625 7.56625 5.04125 6.3125 5.0625 C3.08022678 5.06824116 0.15065259 4.78766315 -3 4 C-2.01 3.67 -1.02 3.34 0 3 C0 2.01 0 1.02 0 0 Z " fill="#5C5BE5" transform="translate(78,64)"/>
<path d="M0 0 C0.99 0 1.98 0 3 0 C3 0.66 3 1.32 3 2 C2.34 2 1.68 2 1 2 C1.66 3.65 2.32 5.3 3 7 C3.66 6.67 4.32 6.34 5 6 C4.67 6.86625 4.34 7.7325 4 8.625 C2.63290823 13.23893472 2.18730088 16.37460175 4.375 20.75 C5.94891293 23.05506789 5.94891293 23.05506789 8 25 C6.68 25 5.36 25 4 25 C3.67 23.68 3.34 22.36 3 21 C2.34 21 1.68 21 1 21 C0.67 21.99 0.34 22.98 0 24 C0 16.08 0 8.16 0 0 Z " fill="#8F43D5" transform="translate(98,148)"/>
<path d="M0 0 C-0.33 0.66 -0.66 1.32 -1 2 C0.65 2 2.3 2 4 2 C3.67 2.66 3.34 3.32 3 4 C-2.94 4 -8.88 4 -15 4 C-15 2.68 -15 1.36 -15 0 C-13.06325815 -0.19517554 -11.12555991 -0.38087873 -9.1875 -0.5625 C-8.10855469 -0.66691406 -7.02960938 -0.77132812 -5.91796875 -0.87890625 C-3 -1 -3 -1 0 0 Z " fill="#6952F1" transform="translate(87,100)"/>
<path d="M0 0 C0.99 0.33 1.98 0.66 3 1 C3 4.3 3 7.6 3 11 C2.34 11 1.68 11 1 11 C1 10.34 1 9.68 1 9 C0.34 9.66 -0.32 10.32 -1 11 C-3 11.6875 -3 11.6875 -5 12 C-5.66 11.67 -6.32 11.34 -7 11 C-7 10.01 -7 9.02 -7 8 C-5.5459375 7.5978125 -5.5459375 7.5978125 -4.0625 7.1875 C-2.5465625 6.5996875 -2.5465625 6.5996875 -1 6 C-0.67 5.01 -0.34 4.02 0 3 C-0.66 3 -1.32 3 -2 3 C-2 2.34 -2 1.68 -2 1 C-1.34 0.67 -0.68 0.34 0 0 Z " fill="#9335D9" transform="translate(149,88)"/>
<path d="M0 0 C0.99 0 1.98 0 3 0 C3.33 4.62 3.66 9.24 4 14 C3.01 14.66 2.02 15.32 1 16 C-1.92332863 10.38720904 -2.28517434 7.21167595 -1 1 C-0.67 0.67 -0.34 0.34 0 0 Z " fill="#AD4CD5" transform="translate(120,157)"/>
<path d="M0 0 C5.39117761 0.65006161 10.10089548 2.35777092 15.125 4.3125 C15.92292969 4.60833984 16.72085938 4.90417969 17.54296875 5.20898438 C21.850604 6.87378832 25.00035178 8.32745772 28 12 C21.03520721 10.72089577 15.2638542 8.5160913 8.9375 5.375 C8.07189453 4.95476562 7.20628906 4.53453125 6.31445312 4.1015625 C4.2053308 3.07613286 2.10084453 2.04225463 0 1 C0 0.67 0 0.34 0 0 Z " fill="#75685B" transform="translate(70,73)"/>
<path d="M0 0 C3.96 0 7.92 0 12 0 C12 0.33 12 0.66 12 1 C7.545 1.495 7.545 1.495 3 2 C3.66 2.33 4.32 2.66 5 3 C4.835 3.969375 4.67 4.93875 4.5 5.9375 C3.95731761 9.26142961 4.16878278 10.77903328 5 14 C4.34 14 3.68 14 3 14 C3 13.34 3 12.68 3 12 C0.69 12 -1.62 12 -4 12 C-2.68 11.67 -1.36 11.34 0 11 C0 7.37 0 3.74 0 0 Z " fill="#8D57DD" transform="translate(81,161)"/>
<path d="M0 0 C0 1.32 0 2.64 0 4 C-1.65 3.67 -3.3 3.34 -5 3 C-5.33 3.99 -5.66 4.98 -6 6 C-6.66 6.66 -7.32 7.32 -8 8 C-8.33 8.99 -8.66 9.98 -9 11 C-9.99 11 -10.98 11 -12 11 C-12.33 11.99 -12.66 12.98 -13 14 C-14.32 13.34 -15.64 12.68 -17 12 C-17 11.34 -17 10.68 -17 10 C-14.76360773 8.19788734 -12.53217136 6.52435503 -10.1875 4.875 C-9.54490234 4.40707031 -8.90230469 3.93914063 -8.24023438 3.45703125 C-3.37720937 0 -3.37720937 0 0 0 Z " fill="#F0E9E6" transform="translate(136,60)"/>
<path d="M0 0 C1.32 0 2.64 0 4 0 C4.33 0.99 4.66 1.98 5 3 C6.98 3 8.96 3 11 3 C11 3.66 11 4.32 11 5 C11.66 5.66 12.32 6.32 13 7 C9.90826248 8.54586876 7.40570448 8.29359521 4 8 C1.5625 6.25 1.5625 6.25 0 4 C0 2.68 0 1.36 0 0 Z " fill="#F3F1F7" transform="translate(30,165)"/>
<path d="M0 0 C0.33 0 0.66 0 1 0 C1.33774332 2.22850277 1.6700187 4.45783467 2 6.6875 C2.185625 7.92886719 2.37125 9.17023438 2.5625 10.44921875 C2.92100411 13.35886371 3.08942256 16.07700022 3 19 C2.01 19.33 1.02 19.66 0 20 C-0.73323796 22.01508358 -0.73323796 22.01508358 -1 24 C-1.66 24 -2.32 24 -3 24 C-3 21.36 -3 18.72 -3 16 C-2.34 16 -1.68 16 -1 16 C-0.67 10.72 -0.34 5.44 0 0 Z " fill="#814DCF" transform="translate(101,112)"/>
<path d="M0 0 C0.66 0 1.32 0 2 0 C2 2.64 2 5.28 2 8 C2.66 8 3.32 8 4 8 C4.33 10.64 4.66 13.28 5 16 C2.03 16 -0.94 16 -4 16 C-4 15.01 -4 14.02 -4 13 C-2.68 13 -1.36 13 0 13 C0 8.71 0 4.42 0 0 Z " fill="#C511AF" transform="translate(187,160)"/>
<path d="M0 0 C0.99 0 1.98 0 3 0 C3 5.94 3 11.88 3 18 C2.01 18 1.02 18 0 18 C0 12.06 0 6.12 0 0 Z " fill="#FDFCFA" transform="translate(50,154)"/>
<path d="M0 0 C2.475 0.495 2.475 0.495 5 1 C3.68 1.33 2.36 1.66 1 2 C1 5.3 1 8.6 1 12 C0.34 11.67 -0.32 11.34 -1 11 C-1 10.34 -1 9.68 -1 9 C-1.99 9 -2.98 9 -4 9 C-4.33 9.66 -4.66 10.32 -5 11 C-5.66 10.67 -6.32 10.34 -7 10 C-8.53668865 9.77532169 -10.07968054 9.59203195 -11.625 9.4375 C-12.44226562 9.35371094 -13.25953125 9.26992187 -14.1015625 9.18359375 C-14.72804687 9.12300781 -15.35453125 9.06242188 -16 9 C-16 8.67 -16 8.34 -16 8 C-11.71 8 -7.42 8 -3 8 C-2.67 6.68 -2.34 5.36 -2 4 C-1.36345658 2.6520257 -0.70394612 1.31403276 0 0 Z " fill="#7348EA" transform="translate(75,144)"/>
<path d="M0 0 C1.65 0.33 3.3 0.66 5 1 C5.33 1.99 5.66 2.98 6 4 C6.99 4.66 7.98 5.32 9 6 C9.1875 8.625 9.1875 8.625 9 11 C8.67 9.68 8.34 8.36 8 7 C6.02 7 4.04 7 2 7 C2 6.34 2 5.68 2 5 C1.34 5 0.68 5 0 5 C0 6.65 0 8.3 0 10 C-0.99 10.495 -0.99 10.495 -2 11 C-2.19622241 6.78121808 -1.80230168 3.82989106 0 0 Z " fill="#C184DE" transform="translate(106,155)"/>
<path d="M0 0 C0.391875 0.474375 0.78375 0.94875 1.1875 1.4375 C3.40808374 3.35179633 5.13375709 3.61266988 8 4 C8 4.99 8 5.98 8 7 C4.04 7 0.08 7 -4 7 C-4.33 5.68 -4.66 4.36 -5 3 C-4.34 2.67 -3.68 2.34 -3 2 C-2.34 2.33 -1.68 2.66 -1 3 C-0.67 2.01 -0.34 1.02 0 0 Z " fill="#B61DBA" transform="translate(153,169)"/>
<path d="M0 0 C1.17755859 0.09667969 1.17755859 0.09667969 2.37890625 0.1953125 C4.4375 0.875 4.4375 0.875 5.71484375 2.9296875 C5.95332031 3.57164062 6.19179687 4.21359375 6.4375 4.875 C5.7775 4.875 5.1175 4.875 4.4375 4.875 C4.4375 4.215 4.4375 3.555 4.4375 2.875 C3.4475 3.205 2.4575 3.535 1.4375 3.875 C-0.22871616 3.91374921 -1.89644172 3.9200286 -3.5625 3.875 C-3.8925 4.535 -4.2225 5.195 -4.5625 5.875 C-5.8825 5.875 -7.2025 5.875 -8.5625 5.875 C-8.25 4 -8.25 4 -7.5625 1.875 C-4.31530737 -0.28979509 -3.68455971 -0.37634712 0 0 Z " fill="#F2DCF4" transform="translate(172.5625,153.125)"/>
<path d="M0 0 C1.66972647 5.08694347 -0.02120308 9.57403366 -1.25 14.625 C-1.46785156 15.59179688 -1.68570313 16.55859375 -1.91015625 17.5546875 C-2.13058594 18.47765625 -2.35101563 19.400625 -2.578125 20.3515625 C-2.77825195 21.19541504 -2.97837891 22.03926758 -3.18457031 22.90869141 C-4 25 -4 25 -7 27 C-6.3436874 20.94364701 -4.73971507 15.37056667 -2.9375 9.5625 C-2.51500977 8.17901367 -2.51500977 8.17901367 -2.08398438 6.76757812 C-1.39392401 4.51026202 -0.69916877 2.25450816 0 0 Z " fill="#C2B7B2" transform="translate(113,42)"/>
<path d="M0 0 C1.65 0 3.3 0 5 0 C5.33 0.99 5.66 1.98 6 3 C6.99 3.33 7.98 3.66 9 4 C9.33 5.32 9.66 6.64 10 8 C6.37 6.68 2.74 5.36 -1 4 C-0.67 2.68 -0.34 1.36 0 0 Z " fill="#A42FC1" transform="translate(138,156)"/>
<path d="M0 0 C3 0 3 0 4.73828125 1.484375 C6.57546371 5.14736417 5.83080077 8.35579424 5.1875 12.25 C5.07857422 12.99507812 4.96964844 13.74015625 4.85742188 14.5078125 C4.58715885 16.34090087 4.29564433 18.17083365 4 20 C2.68 19.34 1.36 18.68 0 18 C0.99 16.515 0.99 16.515 2 15 C2.31643273 12.55455722 2.31643273 12.55455722 2.25 9.9375 C2.25515625 9.05964844 2.2603125 8.18179688 2.265625 7.27734375 C2.21559352 4.80197672 2.21559352 4.80197672 0 3 C0 2.01 0 1.02 0 0 Z " fill="#7E4BE1" transform="translate(71,153)"/>
<path d="M0 0 C1.134375 0.020625 2.26875 0.04125 3.4375 0.0625 C2.5625 4.9375 2.5625 4.9375 1.4375 6.0625 C-0.22867115 6.10313832 -1.89638095 6.105221 -3.5625 6.0625 C-3.94468767 4.40635343 -4.27645102 2.73792976 -4.5625 1.0625 C-3.5625 0.0625 -3.5625 0.0625 0 0 Z " fill="#C61DBA" transform="translate(171.5625,163.9375)"/>
<path d="M0 0 C0 6.27 0 12.54 0 19 C-0.33 19 -0.66 19 -1 19 C-1.90413673 15.16275828 -2.10576898 11.62497726 -2.0625 7.6875 C-2.05347656 6.61886719 -2.04445313 5.55023438 -2.03515625 4.44921875 C-2.01775391 3.23685547 -2.01775391 3.23685547 -2 2 C-4.31 2.33 -6.62 2.66 -9 3 C-5.73209435 0.82139623 -3.91954654 0 0 0 Z " fill="#8E72B0" transform="translate(103,93)"/>
<path d="M0 0 C0.598125 0.20625 1.19625 0.4125 1.8125 0.625 C2.1425 0.295 2.4725 -0.035 2.8125 -0.375 C3.8025 0.285 4.7925 0.945 5.8125 1.625 C2.6870041 4.26965038 -0.27538267 5.46914715 -4.1875 6.625 C-4.8475 5.305 -5.5075 3.985 -6.1875 2.625 C-2.72441275 -0.46704219 -2.72441275 -0.46704219 0 0 Z " fill="#7D46CE" transform="translate(151.1875,41.375)"/>
<path d="M0 0 C0.99 0 1.98 0 3 0 C3.02693575 2.12493141 3.04636628 4.24995912 3.0625 6.375 C3.07410156 7.55835938 3.08570313 8.74171875 3.09765625 9.9609375 C3 13 3 13 2 15 C1.01 15 0.02 15 -1 15 C-0.67 15.66 -0.34 16.32 0 17 C-0.33 17.66 -0.66 18.32 -1 19 C-2.32 18.67 -3.64 18.34 -5 18 C-5 15 -5 15 -3.6875 13.3125 C-2 12 -2 12 1 12 C1.33 8.37 1.66 4.74 2 1 C1.34 0.67 0.68 0.34 0 0 Z " fill="#AA15BD" transform="translate(150,157)"/>
<path d="M0 0 C0.66 0 1.32 0 2 0 C2 4.29 2 8.58 2 13 C2.66 13 3.32 13 4 13 C3.67 13.99 3.34 14.98 3 16 C2.01 15.67 1.02 15.34 0 15 C0 14.34 0 13.68 0 13 C-1.32 13 -2.64 13 -4 13 C-3.67 12.01 -3.34 11.02 -3 10 C-3 10.66 -3 11.32 -3 12 C-2.01 12 -1.02 12 0 12 C0 8.04 0 4.08 0 0 Z " fill="#D32DC1" transform="translate(179,160)"/>
<path d="M0 0 C6.39205856 0.72362927 12.68027076 1.80343362 19 3 C18.01 3.33 17.02 3.66 16 4 C16.33 4.99 16.66 5.98 17 7 C11.27789404 5.13236819 5.62338249 3.14710968 0 1 C0 0.67 0 0.34 0 0 Z " fill="#D9D6D5" transform="translate(58,67)"/>
<path d="M0 0 C0 0.66 0 1.32 0 2 C-0.78375 2.763125 -1.5675 3.52625 -2.375 4.3125 C-4.9385024 6.93703817 -5.81203806 8.61887756 -7 12 C-8.66666667 13.66666667 -10.33333333 15.33333333 -12 17 C-12.99 16.67 -13.98 16.34 -15 16 C-14.401875 15.443125 -13.80375 14.88625 -13.1875 14.3125 C-10.96300217 12.13026448 -10.96300217 12.13026448 -9.625 9.6875 C-3.76744186 0 -3.76744186 0 0 0 Z " fill="#905BA7" transform="translate(162,39)"/>
<path d="M0 0 C0.33 0.99 0.66 1.98 1 3 C-1.97 2.505 -1.97 2.505 -5 2 C-5.268125 2.639375 -5.53625 3.27875 -5.8125 3.9375 C-7 6 -7 6 -10 7 C-10.33 8.65 -10.66 10.3 -11 12 C-11.33 12 -11.66 12 -12 12 C-12.17758833 8.09305679 -12.23513741 5.29388671 -10 2 C-6.3558226 -0.4294516 -4.28758728 -0.16179575 0 0 Z " fill="#F8F9F4" transform="translate(112,154)"/>
<path d="M0 0 C0.33 0 0.66 0 1 0 C3.08511005 7.89041646 3.06514375 13.40305769 0 21 C-0.33 21 -0.66 21 -1 21 C-1.12109311 13.92278069 -0.85373239 7.02804699 0 0 Z " fill="#DFDBD8" transform="translate(104,105)"/>
<path d="M0 0 C-4.08695684 1.59412714 -7.97672124 0.50750859 -12.125 -0.3125 C-13.21748047 -0.50875977 -13.21748047 -0.50875977 -14.33203125 -0.70898438 C-19.74444643 -1.74444643 -19.74444643 -1.74444643 -22 -4 C-16.24463979 -6.8776801 -5.81953886 -1.85729963 0 0 Z " fill="#DCC192" transform="translate(137,94)"/>
<path d="M0 0 C1.4540625 0.0309375 1.4540625 0.0309375 2.9375 0.0625 C1.9475 0.3925 0.9575 0.7225 -0.0625 1.0625 C-0.79573796 3.07758358 -0.79573796 3.07758358 -1.0625 5.0625 C-2.0525 5.0625 -3.0425 5.0625 -4.0625 5.0625 C-4.3925 6.0525 -4.7225 7.0425 -5.0625 8.0625 C-6.7125 8.0625 -8.3625 8.0625 -10.0625 8.0625 C-9.08383662 6.91623678 -8.10455413 5.77050212 -7.125 4.625 C-6.57972656 3.98691406 -6.03445312 3.34882812 -5.47265625 2.69140625 C-3.19920785 0.06528996 -3.19920785 0.06528996 0 0 Z " fill="#8242D5" transform="translate(149.0625,55.9375)"/>
<path d="M0 0 C2.88669398 1.44334699 3.84397399 3.60375858 5.5625 6.3125 C6.49255859 7.76076172 6.49255859 7.76076172 7.44140625 9.23828125 C8.76961252 11.59176956 9.54338818 13.36666336 10 16 C7.36 16 4.72 16 2 16 C2 15.67 2 15.34 2 15 C3.65 15 5.3 15 7 15 C6.57847656 14.25234375 6.15695313 13.5046875 5.72265625 12.734375 C5.17480469 11.74953125 4.62695312 10.7646875 4.0625 9.75 C3.51722656 8.77546875 2.97195312 7.8009375 2.41015625 6.796875 C1.23389165 4.46389591 0.47898309 2.54649238 0 0 Z " fill="#72686B" transform="translate(89,58)"/>
<path d="M0 0 C2.64 0 5.28 0 8 0 C7.67 1.32 7.34 2.64 7 4 C5.35 4 3.7 4 2 4 C1.67 5.32 1.34 6.64 1 8 C0 7 0 7 -0.0625 3.4375 C-0.041875 2.303125 -0.02125 1.16875 0 0 Z " fill="#9F42D8" transform="translate(120,144)"/>
<path d="M0 0 C0.66 0.33 1.32 0.66 2 1 C2 4 2 4 0.46875 5.60546875 C-0.1809375 6.12753906 -0.830625 6.64960937 -1.5 7.1875 C-2.1496875 7.71730469 -2.799375 8.24710938 -3.46875 8.79296875 C-3.9740625 9.19128906 -4.479375 9.58960937 -5 10 C-5.33 8.35 -5.66 6.7 -6 5 C-4.02 3.35 -2.04 1.7 0 0 Z " fill="#E4E0D5" transform="translate(133,62)"/>
<path d="M0 0 C0.77321882 2.98241547 1.41196203 5.97580475 2 9 C0.35 9.66 -1.3 10.32 -3 11 C-3.33 8.03 -3.66 5.06 -4 2 C-2.68 2 -1.36 2 0 2 C0 1.34 0 0.68 0 0 Z " fill="#C01EC6" transform="translate(162,156)"/>
<path d="M0 0 C2.6875 -0.3125 2.6875 -0.3125 5 0 C5.33 1.65 5.66 3.3 6 5 C3.03 5 0.06 5 -3 5 C-1.8125 2.5 -1.8125 2.5 0 0 Z " fill="#C013B9" transform="translate(169,156)"/>
<path d="M0 0 C1.9375 1.9375 1.9375 1.9375 3 5 C2.93868395 8.05558328 2.54332848 10.99532807 2 14 C1.67 14 1.34 14 1 14 C0.34 10.37 -0.32 6.74 -1 3 C-3.97 2.67 -6.94 2.34 -10 2 C-6.00627615 0.00313807 -4.32775231 -0.64455886 0 0 Z " fill="#D6A1E2" transform="translate(117,152)"/>
<path d="M0 0 C0.66 0.33 1.32 0.66 2 1 C2 3 2 5 2 7 C2.66 7.33 3.32 7.66 4 8 C2.35 8 0.7 8 -1 8 C-1.33 9.32 -1.66 10.64 -2 12 C-2.33 9.69 -2.66 7.38 -3 5 C-2.34 5 -1.68 5 -1 5 C-1 4.34 -1 3.68 -1 3 C-1.66 3 -2.32 3 -3 3 C-3 2.34 -3 1.68 -3 1 C-2.01 0.67 -1.02 0.34 0 0 Z " fill="#954BE7" transform="translate(102,145)"/>
<path d="M0 0 C0.66 0 1.32 0 2 0 C2 0.66 2 1.32 2 2 C2.66 2 3.32 2 4 2 C4 6.62 4 11.24 4 16 C3.01 15.67 2.02 15.34 1 15 C1.01160156 14.25234375 1.02320313 13.5046875 1.03515625 12.734375 C1.04417969 11.74953125 1.05320313 10.7646875 1.0625 9.75 C1.07410156 8.77546875 1.08570313 7.8009375 1.09765625 6.796875 C1.01195577 4.34241322 0.70706066 2.33831086 0 0 Z " fill="#F9FCF7" transform="translate(175,156)"/>
<path d="M0 0 C2 0.3125 2 0.3125 4 1 C4.33 1.66 4.66 2.32 5 3 C3.4221875 3.0928125 3.4221875 3.0928125 1.8125 3.1875 C-2.66884605 4.14254096 -3.96025526 5.70694319 -7 9 C-7.99 9 -8.98 9 -10 9 C-10.33 8.34 -10.66 7.68 -11 7 C-10.278125 6.938125 -9.55625 6.87625 -8.8125 6.8125 C-5.1410973 5.75187255 -3.52297062 3.80330069 -1 1 C-0.67 0.67 -0.34 0.34 0 0 Z " fill="#A55ADC" transform="translate(112,146)"/>
<path d="M0 0 C3.3 0.33 6.6 0.66 10 1 C10 1.33 10 1.66 10 2 C7.69 2 5.38 2 3 2 C2.34 4.31 1.68 6.62 1 9 C0.01 8.34 -0.98 7.68 -2 7 C-1.34 4.69 -0.68 2.38 0 0 Z " fill="#76585B" transform="translate(114,91)"/>
<path d="M0 0 C1.6260287 0.06000106 3.25101549 0.1487885 4.875 0.25 C6.23238281 0.31960937 6.23238281 0.31960937 7.6171875 0.390625 C10 1 10 1 11.3203125 3.046875 C11.54460937 3.69140625 11.76890625 4.3359375 12 5 C5.375 5.25 5.375 5.25 2 3 C1.34 2.67 0.68 2.34 0 2 C0 1.34 0 0.68 0 0 Z " fill="#F8F5F1" transform="translate(86,73)"/>
<path d="M0 0 C0.33 0 0.66 0 1 0 C1.33 3.96 1.66 7.92 2 12 C2.99 12.33 3.98 12.66 5 13 C5 13.99 5 14.98 5 16 C2.69 15.67 0.38 15.34 -2 15 C-2 14.34 -2 13.68 -2 13 C-1.34 13 -0.68 13 0 13 C0 8.71 0 4.42 0 0 Z " fill="#EFDDF6" transform="translate(126,157)"/>
<path d="M0 0 C2.475 0.99 2.475 0.99 5 2 C5.66 1.34 6.32 0.68 7 0 C7 2.64 7 5.28 7 8 C6.67 6.68 6.34 5.36 6 4 C4.8553125 4.495 4.8553125 4.495 3.6875 5 C1 6 1 6 -2 6 C-2 5.01 -2 4.02 -2 3 C-1.34 3 -0.68 3 0 3 C0 2.01 0 1.02 0 0 Z " fill="#7E45DC" transform="translate(86,149)"/>
<path d="M0 0 C0.99 0.66 1.98 1.32 3 2 C2.8125 5.3125 2.8125 5.3125 2 9 C-0.5625 10.9375 -0.5625 10.9375 -3 12 C-3 10.02 -3 8.04 -3 6 C-1.68 6.33 -0.36 6.66 1 7 C0.67 4.69 0.34 2.38 0 0 Z " fill="#7E43E9" transform="translate(117,97)"/>
<path d="M0 0 C0.66 0 1.32 0 2 0 C2.66 1.65 3.32 3.3 4 5 C0.49223216 6.60355101 -2.14354879 7.22036864 -6 7 C-5.34 6.67 -4.68 6.34 -4 6 C-4 5.01 -4 4.02 -4 3 C-3.01 2.34 -2.02 1.68 -1 1 C-0.67 0.67 -0.34 0.34 0 0 Z " fill="#9634DD" transform="translate(148,97)"/>
<path d="M0 0 C2.97 0.99 5.94 1.98 9 3 C8.67 3.66 8.34 4.32 8 5 C5.35139573 5.59355614 2.70802678 5.74209269 0 6 C0 4.02 0 2.04 0 0 Z " fill="#5560F6" transform="translate(64,74)"/>
<path d="M0 0 C0.33 0.66 0.66 1.32 1 2 C2.98 2 4.96 2 7 2 C7 3.98 7 5.96 7 8 C5.68 8 4.36 8 3 8 C3 6.35 3 4.7 3 3 C2.01 3.33 1.02 3.66 0 4 C0 2.68 0 1.36 0 0 Z " fill="#AD57D8" transform="translate(107,160)"/>
<path d="M0 0 C4.62 0 9.24 0 14 0 C13.01 0.495 13.01 0.495 12 1 C11.34786708 3.02463255 11.34786708 3.02463255 11 5 C11 4.01 11 3.02 11 2 C9.6696875 2.2784375 9.6696875 2.2784375 8.3125 2.5625 C5.14821189 2.98042484 3.05160358 2.80777742 0 2 C0 1.34 0 0.68 0 0 Z " fill="#CB2FC0" transform="translate(182,152)"/>
<path d="M0 0 C0.66 0.66 1.32 1.32 2 2 C4.57061311 2.64767793 4.57061311 2.64767793 7 3 C6.67 3.99 6.34 4.98 6 6 C4.35 6 2.7 6 1 6 C0.67 6.99 0.34 7.98 0 9 C-1.125 2.25 -1.125 2.25 0 0 Z " fill="#6A50E7" transform="translate(48,148)"/>
<path d="M0 0 C0.66 0 1.32 0 2 0 C2.66 2.97 3.32 5.94 4 9 C2.35 8.67 0.7 8.34 -1 8 C-1.04241723 5.66705225 -1.04092937 3.33297433 -1 1 C-0.67 0.67 -0.34 0.34 0 0 Z " fill="#FBF8FA" transform="translate(102,160)"/>
<path d="M0 0 C1.258125 -0.020625 2.51625 -0.04125 3.8125 -0.0625 C4.52019531 -0.07410156 5.22789063 -0.08570312 5.95703125 -0.09765625 C8 0 8 0 11 1 C10.67 1.99 10.34 2.98 10 4 C7.03 3.67 4.06 3.34 1 3 C0.67 2.01 0.34 1.02 0 0 Z " fill="#F1F1EE" transform="translate(74,71)"/>
<path d="M0 0 C0.66 0 1.32 0 2 0 C2.33 2.97 2.66 5.94 3 9 C1.02 9.99 1.02 9.99 -1 11 C-1 10.01 -1 9.02 -1 8 C-0.34 8 0.32 8 1 8 C0.34 7.34 -0.32 6.68 -1 6 C-1.1875 3.4375 -1.1875 3.4375 -1 1 C-0.67 0.67 -0.34 0.34 0 0 Z " fill="#8F3AE7" transform="translate(165,37)"/>
<path d="M0 0 C0.66 0.99 1.32 1.98 2 3 C-1.98196457 4.05404945 -4.98195309 3.84098656 -9 3 C-9 2.34 -9 1.68 -9 1 C-4.545 0.505 -4.545 0.505 0 0 Z " fill="#B522CB" transform="translate(144,172)"/>
<path d="M0 0 C1.32 0.33 2.64 0.66 4 1 C4.33 2.98 4.66 4.96 5 7 C1.125 6.125 1.125 6.125 0 5 C-0.04063832 3.33382885 -0.042721 1.66611905 0 0 Z " fill="#F7EFF9" transform="translate(163,165)"/>
<path d="M0 0 C3.70293685 -0.33663062 5.39534381 -0.47736015 8.375 1.875 C10 4 10 4 10 6 C8.68 6 7.36 6 6 6 C5.7525 5.195625 5.505 4.39125 5.25 3.5625 C4.27761141 0.828919 4.27761141 0.828919 1.875 0.1875 C1.25625 0.125625 0.6375 0.06375 0 0 Z " fill="#EAD3EE" transform="translate(138,153)"/>
<path d="M0 0 C0.66 0.33 1.32 0.66 2 1 C1.2884375 1.61875 1.2884375 1.61875 0.5625 2.25 C-1.18569769 4.20798141 -1.66687051 5.41824645 -2 8 C-1.67 8.66 -1.34 9.32 -1 10 C-3.97 9.505 -3.97 9.505 -7 9 C-7 6 -7 6 -5.46875 4.39453125 C-4.49421875 3.61142578 -4.49421875 3.61142578 -3.5 2.8125 C-2.8503125 2.28269531 -2.200625 1.75289063 -1.53125 1.20703125 C-1.0259375 0.80871094 -0.520625 0.41039063 0 0 Z " fill="#765549" transform="translate(128,73)"/>
<path d="M0 0 C0.66 0.99 1.32 1.98 2 3 C1.45730469 3.32613281 0.91460937 3.65226562 0.35546875 3.98828125 C-0.35996094 4.42527344 -1.07539063 4.86226563 -1.8125 5.3125 C-2.52019531 5.74175781 -3.22789062 6.17101562 -3.95703125 6.61328125 C-5.88960231 7.92506467 -7.41410612 9.29403845 -9 11 C-9.66 10.67 -10.32 10.34 -11 10 C-5.555 5.05 -5.555 5.05 0 0 Z " fill="#B08D69" transform="translate(132,68)"/>
<path d="M0 0 C0.66 0.33 1.32 0.66 2 1 C0.40320196 2.3421492 -1.20270197 3.67347115 -2.8125 5 C-4.15248047 6.11375 -4.15248047 6.11375 -5.51953125 7.25 C-8 9 -8 9 -11 9 C-10.67 8.01 -10.34 7.02 -10 6 C-9.34 6.33 -8.68 6.66 -8 7 C-8 6.01 -8 5.02 -8 4 C-7.4225 3.896875 -6.845 3.79375 -6.25 3.6875 C-3.67950842 2.90207202 -2.06342716 1.69495803 0 0 Z " fill="#745080" transform="translate(149,46)"/>
<path d="M0 0 C0.99 0.66 1.98 1.32 3 2 C2.34 2.66 1.68 3.32 1 4 C0.01 4 -0.98 4 -2 4 C-2 8.62 -2 13.24 -2 18 C-2.33 18 -2.66 18 -3 18 C-3 12.72 -3 7.44 -3 2 C-2.34 1.67 -1.68 1.34 -1 1 C-0.67 0.67 -0.34 0.34 0 0 Z " fill="#6C46ED" transform="translate(57,153)"/>
<path d="M0 0 C6.4 0.49230769 6.4 0.49230769 9.4375 3.0625 C10.2109375 4.0215625 10.2109375 4.0215625 11 5 C10.67 5.66 10.34 6.32 10 7 C7.525 6.01 7.525 6.01 5 5 C5 4.01 5 3.02 5 2 C3.35 1.67 1.7 1.34 0 1 C0 0.67 0 0.34 0 0 Z " fill="#E8DCF7" transform="translate(63,153)"/>
<path d="M0 0 C2.31 0 4.62 0 7 0 C7 0.66 7 1.32 7 2 C7.66 2.66 8.32 3.32 9 4 C6.04335481 5.4783226 3.25770263 5.06032783 0 5 C0.99 4.67 1.98 4.34 3 4 C3 3.34 3 2.68 3 2 C2.01 2 1.02 2 0 2 C0 1.34 0 0.68 0 0 Z " fill="#EAE4F8" transform="translate(34,168)"/>
<path d="M0 0 C0.33 0 0.66 0 1 0 C1.38951724 2.43598091 1.76203193 4.87254794 2.125 7.3125 C2.23714844 8.00279297 2.34929687 8.69308594 2.46484375 9.40429688 C3.2265625 14.66015625 3.2265625 14.66015625 1 18 C-0.59412284 14.81175432 -0.10174735 11.37103338 -0.0625 7.875 C-0.05798828 7.12089844 -0.05347656 6.36679688 -0.04882812 5.58984375 C-0.03703499 3.72652873 -0.01909942 1.86325445 0 0 Z " fill="#9C7BAD" transform="translate(101,112)"/>
<path d="M0 0 C0.66 1.32 1.32 2.64 2 4 C0.71211992 4.53012738 -0.58046678 5.0488329 -1.875 5.5625 C-2.95394531 5.99755859 -2.95394531 5.99755859 -4.0546875 6.44140625 C-6 7 -6 7 -8 6 C-5.36 4.02 -2.72 2.04 0 0 Z " fill="#E1DAD5" transform="translate(86,93)"/>
<path d="M0 0 C1.6875 1.578125 1.6875 1.578125 3 3 C1.5608866 2.71640113 0.12374482 2.42278601 -1.3125 2.125 C-2.11300781 1.96257812 -2.91351563 1.80015625 -3.73828125 1.6328125 C-6 1 -6 1 -9 -1 C-5.17456525 -2.27514492 -3.66576992 -1.52740413 0 0 Z " fill="#655047" transform="translate(95,82)"/>
<path d="M0 0 C0.33 0.66 0.66 1.32 1 2 C2.32 2 3.64 2 5 2 C5 2.66 5 3.32 5 4 C5.99 4.33 6.98 4.66 8 5 C6.68 5 5.36 5 4 5 C4 4.34 4 3.68 4 3 C2.700625 3.2475 2.700625 3.2475 1.375 3.5 C-1.81225199 3.97218548 -4.78485027 4.07655118 -8 4 C-8 3.34 -8 2.68 -8 2 C-6.865625 1.855625 -5.73125 1.71125 -4.5625 1.5625 C-1.19222799 1.38828522 -1.19222799 1.38828522 0 0 Z " fill="#BD12AD" transform="translate(174,171)"/>
<path d="M0 0 C0.33 0 0.66 0 1 0 C1.33 1.98 1.66 3.96 2 6 C2.99 5.67 3.98 5.34 5 5 C5 6.98 5 8.96 5 11 C4.67 10.34 4.34 9.68 4 9 C2.68 9 1.36 9 0 9 C0 6.03 0 3.06 0 0 Z " fill="#B714B9" transform="translate(158,160)"/>
<path d="M0 0 C1.98 0.495 1.98 0.495 4 1 C4 3.31 4 5.62 4 8 C3.67 7.34 3.34 6.68 3 6 C2.01 6 1.02 6 0 6 C-1.125 2.25 -1.125 2.25 0 0 Z " fill="#CB18BA" transform="translate(196,152)"/>
<path d="M0 0 C0 0.66 0 1.32 0 2 C-0.639375 2.12375 -1.27875 2.2475 -1.9375 2.375 C-2.618125 2.58125 -3.29875 2.7875 -4 3 C-4.33 3.66 -4.66 4.32 -5 5 C-5.99 5 -6.98 5 -8 5 C-8 3.68 -8 2.36 -8 1 C-5.29120665 -0.35439668 -2.99066732 -0.06501451 0 0 Z " fill="#F9F2F3" transform="translate(142,154)"/>
<path d="M0 0 C3.94727588 -0.17942163 6.5980513 -0.09350689 10 2 C10 3.32 10 4.64 10 6 C9.34 6 8.68 6 8 6 C8 5.01 8 4.02 8 3 C7.236875 3.061875 6.47375 3.12375 5.6875 3.1875 C3 3 3 3 1.1875 1.5 C0.5996875 0.7575 0.5996875 0.7575 0 0 Z " fill="#953BE4" transform="translate(139,89)"/>
<path d="M0 0 C2 3 2 3 3 6 C-2.75 5.125 -2.75 5.125 -5 4 C-5 3.34 -5 2.68 -5 2 C-3.35 1.34 -1.7 0.68 0 0 Z " fill="#ECEDED" transform="translate(102,84)"/>
<path d="M0 0 C1.27875 0.28875 2.5575 0.5775 3.875 0.875 C4.95394531 1.11863281 4.95394531 1.11863281 6.0546875 1.3671875 C8 2 8 2 10 4 C8.02 4.99 8.02 4.99 6 6 C5.566875 5.525625 5.13375 5.05125 4.6875 4.5625 C2.97690387 2.76313043 2.97690387 2.76313043 0 2 C0 1.34 0 0.68 0 0 Z " fill="#5E60C0" transform="translate(60,69)"/>
<path d="M0 0 C0.99 0.33 1.98 0.66 3 1 C4.1875 3.5625 4.1875 3.5625 5 6 C2.03 6 -0.94 6 -4 6 C-2.68 5.34 -1.36 4.68 0 4 C0 2.68 0 1.36 0 0 Z " fill="#6253D3" transform="translate(91,67)"/>
<path d="M0 0 C-0.6875 1.9375 -0.6875 1.9375 -2 4 C-4.625 4.75 -4.625 4.75 -7 5 C-7 4.01 -7 3.02 -7 2 C-4 0 -4 0 0 0 Z " fill="#EFE5E1" transform="translate(146,53)"/>
<path d="M0 0 C-0.33 0.99 -0.66 1.98 -1 3 C-3.97 2.505 -3.97 2.505 -7 2 C-7 1.01 -7 0.02 -7 -1 C-3.51418144 -2.2020064 -3.32007656 -2.21338437 0 0 Z " fill="#9A50BE" transform="translate(149,97)"/>
<path d="M0 0 C1.65 0.33 3.3 0.66 5 1 C-0.14285714 6.57142857 -0.14285714 6.57142857 -4 7 C-3.34 5.68 -2.68 4.36 -2 3 C-1.01 3 -0.02 3 1 3 C0.67 2.01 0.34 1.02 0 0 Z " fill="#816F7B" transform="translate(93,84)"/>
<path d="M0 0 C1.65 0 3.3 0 5 0 C5 1.32 5 2.64 5 4 C3.35 4 1.7 4 0 4 C0 2.68 0 1.36 0 0 Z " fill="#A929C4" transform="translate(138,166)"/>
<path d="M0 0 C1.65 0 3.3 0 5 0 C5.33 0.99 5.66 1.98 6 3 C3.69 3.33 1.38 3.66 -1 4 C-0.67 2.68 -0.34 1.36 0 0 Z " fill="#AC35CF" transform="translate(138,156)"/>
<path d="M0 0 C1.875 0.25 1.875 0.25 4 1 C5.25 3.0625 5.25 3.0625 6 5 C4.35 4.67 2.7 4.34 1 4 C0.67 2.68 0.34 1.36 0 0 Z " fill="#F9EAF9" transform="translate(133,167)"/>
<path d="M0 0 C0.99 0.33 1.98 0.66 3 1 C3 3.64 3 6.28 3 9 C2.01 9 1.02 9 0 9 C0 6.03 0 3.06 0 0 Z " fill="#FAF9F4" transform="translate(115,159)"/>
<path d="M0 0 C1.485 0.99 1.485 0.99 3 2 C3.1875 5.125 3.1875 5.125 3 8 C2.01 7.67 1.02 7.34 0 7 C-0.38133299 5.0085944 -0.71325582 3.00720923 -1 1 C-0.67 0.67 -0.34 0.34 0 0 Z " fill="#FCFBF8" transform="translate(71,158)"/>
<path d="M0 0 C0.99 0 1.98 0 3 0 C3.33 1.32 3.66 2.64 4 4 C2.68 4.33 1.36 4.66 0 5 C-0.5625 3.0625 -0.5625 3.0625 -1 1 C-0.67 0.67 -0.34 0.34 0 0 Z " fill="#E6E1F3" transform="translate(50,146)"/>
<path d="M0 0 C0 3.10551666 -0.5393715 4.35261084 -2 7 C-1.34 7.33 -0.68 7.66 0 8 C-0.99 8.99 -1.98 9.98 -3 11 C-3.75 8.3125 -3.75 8.3125 -4 5 C-2.0625 2.125 -2.0625 2.125 0 0 Z " fill="#7E45C9" transform="translate(138,64)"/>
<path d="M0 0 C0.99 0.33 1.98 0.66 3 1 C2.484375 1.4125 1.96875 1.825 1.4375 2.25 C0.963125 2.8275 0.48875 3.405 0 4 C0.22757731 6.16299211 0.22757731 6.16299211 1 8 C0.01 8 -0.98 8 -2 8 C-2.125 5.125 -2.125 5.125 -2 2 C-1.34 1.34 -0.68 0.68 0 0 Z " fill="#8346F0" transform="translate(146,40)"/>
<path d="M0 0 C2.625 0.9375 2.625 0.9375 5 2 C4.67 2.66 4.34 3.32 4 4 C0.9375 4.625 0.9375 4.625 -2 5 C-2 3.68 -2 2.36 -2 1 C-1.34 0.67 -0.68 0.34 0 0 Z " fill="#AA34D6" transform="translate(122,172)"/>
<path d="M0 0 C0.33 0.66 0.66 1.32 1 2 C0.67 2.66 0.34 3.32 0 4 C0.66 4.33 1.32 4.66 2 5 C0.02 5.66 -1.96 6.32 -4 7 C-4.33 5.68 -4.66 4.36 -5 3 C-4.34 2.67 -3.68 2.34 -3 2 C-2.34 2.33 -1.68 2.66 -1 3 C-0.67 2.01 -0.34 1.02 0 0 Z " fill="#C22AD1" transform="translate(153,169)"/>
<path d="M0 0 C1.98 0 3.96 0 6 0 C5.67 1.65 5.34 3.3 5 5 C4.34 4.67 3.68 4.34 3 4 C3 3.34 3 2.68 3 2 C2.01 2 1.02 2 0 2 C0 1.34 0 0.68 0 0 Z " fill="#C20FB7" transform="translate(169,164)"/>
<path d="M0 0 C0.66 0 1.32 0 2 0 C2.33 1.32 2.66 2.64 3 4 C2.01 4.33 1.02 4.66 0 5 C-0.33 6.65 -0.66 8.3 -1 10 C-1.33 10 -1.66 10 -2 10 C-2.17942163 6.05272412 -2.09350689 3.4019487 0 0 Z " fill="#E7D3F1" transform="translate(102,156)"/>
<path d="M0 0 C2.625 0.9375 2.625 0.9375 5 2 C4.67 2.99 4.34 3.98 4 5 C-0.875 3.25 -0.875 3.25 -2 1 C-1.34 0.67 -0.68 0.34 0 0 Z " fill="#7F47C8" transform="translate(131,83)"/>
<path d="M0 0 C0 0.66 0 1.32 0 2 C0.66 2.33 1.32 2.66 2 3 C0.02 3.66 -1.96 4.32 -4 5 C-4.33 4.01 -4.66 3.02 -5 2 C-2 0 -2 0 0 0 Z " fill="#813EED" transform="translate(133,79)"/>
<path d="M0 0 C1.8125 1.3125 1.8125 1.3125 2.8125 4.3125 C-0.1575 3.3225 -3.1275 2.3325 -6.1875 1.3125 C-2.1875 -0.6875 -2.1875 -0.6875 0 0 Z " fill="#DFDCD5" transform="translate(82.1875,73.6875)"/>
<path d="M0 0 C1.43655854 -0.08131463 2.8744483 -0.13933559 4.3125 -0.1875 C5.51326172 -0.23970703 5.51326172 -0.23970703 6.73828125 -0.29296875 C9.47851584 0.06198392 10.29171079 0.89366282 12 3 C3.96428571 2.19642857 3.96428571 2.19642857 0 0 Z " fill="#6267D2" transform="translate(62,67)"/>
<path d="M0 0 C0 3.58912412 -0.66436554 4.10857029 -3 6.6875 C-3.556875 7.31011719 -4.11375 7.93273437 -4.6875 8.57421875 C-5.120625 9.04472656 -5.55375 9.51523438 -6 10 C-6.33 9.01 -6.66 8.02 -7 7 C-4.69 4.69 -2.38 2.38 0 0 Z " fill="#937546" transform="translate(140,60)"/>
<path d="M0 0 C1.32 0 2.64 0 4 0 C3.67 1.65 3.34 3.3 3 5 C2.01 5 1.02 5 0 5 C0 3.35 0 1.7 0 0 Z " fill="#6356F7" transform="translate(104,48)"/>
<path d="M0 0 C0.33 0.99 0.66 1.98 1 3 C1.99 3.33 2.98 3.66 4 4 C4.33 4.66 4.66 5.32 5 6 C1.25 7.125 1.25 7.125 -1 6 C-0.67 4.02 -0.34 2.04 0 0 Z " fill="#AF1FB1" transform="translate(163,156)"/>
<path d="M0 0 C0.99 0.33 1.98 0.66 3 1 C-2.2734375 4.22265625 -2.2734375 4.22265625 -4 5 C-4.66 4.67 -5.32 4.34 -6 4 C-5.67 3.01 -5.34 2.02 -5 1 C-4.01 1 -3.02 1 -2 1 C-1.34 0.67 -0.68 0.34 0 0 Z " fill="#9A867C" transform="translate(122,66)"/>
<path d="M0 0 C0.99 0.33 1.98 0.66 3 1 C4.1875 3.5625 4.1875 3.5625 5 6 C2.525 5.01 2.525 5.01 0 4 C0 2.68 0 1.36 0 0 Z " fill="#6859D3" transform="translate(96,59)"/>
<path d="M0 0 C0.99 1.98 1.98 3.96 3 6 C0.0280615 4.87548273 -2.33440687 3.77706209 -5 2 C-2 0 -2 0 0 0 Z " fill="#AA46CC" transform="translate(133,167)"/>
<path d="M0 0 C2.64 0 5.28 0 8 0 C8 0.66 8 1.32 8 2 C5.36 2.66 2.72 3.32 0 4 C0 2.68 0 1.36 0 0 Z " fill="#6754EA" transform="translate(72,100)"/>
<path d="M0 0 C0 0.33 0 0.66 0 1 C-2.64 1 -5.28 1 -8 1 C-8.33 0.34 -8.66 -0.32 -9 -1 C-5.22102349 -2.0497157 -3.35080929 -2.10976881 0 0 Z " fill="#E5D5C8" transform="translate(146,95)"/>
<path d="M0 0 C2.3125 -0.25 2.3125 -0.25 5 0 C6.8125 2 6.8125 2 8 4 C6.68 4.33 5.36 4.66 4 5 C3.67 4.01 3.34 3.02 3 2 C2.01 1.67 1.02 1.34 0 1 C0 0.67 0 0.34 0 0 Z " fill="#EBDEDC" transform="translate(95,87)"/>
</svg>
