<?xml version="1.0" encoding="UTF-8"?>
<svg version="1.1" xmlns="http://www.w3.org/2000/svg" width="1280" height="897">
<path d="M0 0 C8.11309992 -0.0003006 16.22616604 -0.0084092 24.33925605 -0.02069902 C72.74037065 -0.09230721 121.12131955 0.02488434 169.51210761 1.11089277 C170.44743134 1.13183823 171.38275508 1.15278368 172.34642196 1.17436385 C193.44892804 1.65077454 214.54774952 2.24368703 235.64565253 2.89116621 C236.55044435 2.9189143 237.45523617 2.94666238 238.38744593 2.97525132 C300.9854354 4.90597882 363.62802102 7.6200102 426.01992011 13.18511152 C427.33467322 13.30179182 427.33467322 13.30179182 428.67598701 13.4208293 C486.54908619 18.59723608 542.73064421 25.82745562 586.01992011 68.18511152 C586.68120917 68.79612715 587.34249824 69.40714277 588.02382636 70.03667402 C608.27889829 89.11685779 621.28802289 116.62292835 628.01992011 143.18511152 C628.26306952 144.14256269 628.50621894 145.10001387 628.75673652 146.08647871 C643.94572719 207.29643331 647.45213141 271.69752146 650.70742011 334.43511152 C650.76826789 335.60367689 650.82911567 336.77224226 650.89180732 337.9762187 C651.30628659 346.04430644 651.67493959 354.11377529 652.01992011 362.18511152 C652.06937781 363.29118757 652.11883552 364.39726362 652.16979194 365.53685713 C653.25005721 390.36027037 653.2073659 415.19427644 653.20522285 440.03667402 C653.20514227 444.84628316 653.21199062 449.65579565 653.22573066 454.46538496 C653.35206659 499.47687277 652.11630015 544.38935555 649.20742011 589.31011152 C649.1234397 590.62714064 649.0394593 591.94416975 648.95293403 593.30110884 C645.62371424 645.26378345 641.83260992 698.5518313 629.01992011 749.18511152 C628.65882148 750.62757246 628.65882148 750.62757246 628.29042792 752.09917402 C625.25950104 763.98008366 621.41823831 775.17314894 616.01992011 786.18511152 C615.23874824 787.80739668 615.23874824 787.80739668 614.44179511 789.46245527 C606.84917833 804.37125861 596.6709005 817.2778779 585.01992011 829.18511152 C584.40890449 829.84640059 583.79788886 830.50768965 583.16835761 831.18901777 C525.11537699 892.81668932 412.09521895 885.50584526 229.27382255 893.70795774 C222.21026648 893.91745677 215.1464057 894.11570246 208.08242011 894.31011152 C207.02111129 894.33948175 207.02111129 894.33948175 205.93836188 894.36944532 C160.05795918 895.6353322 114.16534927 896.38545884 68.26992011 896.81011152 C66.49615752 896.82668491 66.49615752 896.82668491 64.68656135 896.84359312 C-37.20378238 897.78223367 -139.1513579 896.1923017 -561.66757989 826.81011152 C-581.58882164 806.39805657 -595.00748285 780.69702887 -601.98007989 753.18511152 C-602.2232293 752.22766035 -602.46637872 751.27020918 -602.7168963 750.28374434 C-617.82917152 689.38294452 -621.42784463 625.356058 -624.66757989 562.93511152 C-624.72842767 561.76663679 -624.78927545 560.59816206 -624.8519671 559.394279 C-625.26644744 551.32609906 -625.63490437 543.25653099 -625.98007989 535.18511152 C-626.02953759 534.08136183 -626.07899529 532.97761213 -626.12995172 531.84041548 C-627.21838919 506.89100228 -627.16751721 481.92976179 -627.16538262 456.96123457 C-627.16530208 452.10995907 -627.17214517 447.25877946 -627.18589044 442.40752363 C-627.31215988 397.04694114 -626.16829413 351.76454439 -623.16757989 306.49761152 C-623.08359948 305.20675642 -622.99961907 303.91590132 -622.91309381 302.58592939 C-619.52983756 250.77718061 -615.71967537 197.68023543 -602.98007989 147.18511152 C-602.74466485 146.23410566 -602.50924981 145.2830998 -602.26670098 144.30327559 C-594.70362825 114.26870161 -580.19787252 89.49184219 -558.98007989 67.18511152 C-558.3884002 66.54058027 -557.79672051 65.89604902 -557.18711114 65.23198652 C-499.83782506 4.62582741 -389.32802458 11.45997164 -196.23007989 2.56011152 C-194.63941768 2.51280457 -194.63941768 2.51280457 -193.01662087 2.46454191 C-178.35073543 2.02892751 -163.6842106 1.62963528 -149.01645684 1.26237059 C-146.108741 1.18838524 -143.2011466 1.11075812 -140.29355645 1.03200483 C-93.54124799 -0.21717041 -46.7648868 -0.00254449 0 0 Z " fill="#FF0000" transform="translate(626.9800798892975,-0.18511152267456055)"/>
<path d="M0 0 C17.04180602 9.08896321 17.04180602 9.08896321 22.8125 12.5625 C29.98814308 16.8282517 37.20393812 21.02074119 44.4375 25.1875 C45.54391846 25.82502197 46.65033691 26.46254395 47.7902832 27.11938477 C50.06173458 28.42793295 52.33330128 29.73628095 54.60498047 31.04443359 C60.0716998 34.19332054 65.53574887 37.34683264 71 40.5 C73.16665311 41.7500235 75.33331979 43.00002347 77.5 44.25 C97 55.5 97 55.5 116.5 66.75 C117.57266113 67.36883057 118.64532227 67.98766113 119.75048828 68.62524414 C121.91557071 69.87435518 124.08060982 71.12354129 126.24560547 72.37280273 C131.68615706 75.51202309 137.12747216 78.64990563 142.5703125 81.78515625 C153.02206199 87.80747329 163.46299548 93.84669337 173.875 99.9375 C182.55262241 105.01275123 191.26605568 110.02258767 200 115 C209.72115617 120.5400173 219.40894658 126.13374809 229.06689453 131.78344727 C239.59084625 137.93766742 250.15380137 144.02369996 260.71777344 150.10888672 C265.065151 152.61370572 269.41106389 155.1210589 273.75683594 157.62866211 C275.91362879 158.87315302 278.07052931 160.11745734 280.22753906 161.36157227 C285.77044434 164.55866177 291.31204281 167.75798501 296.8515625 170.9609375 C308.52923791 177.71039663 320.21856861 184.43300879 332 191 C332 191.66 332 192.32 332 193 C331.36835937 193.35078613 330.73671875 193.70157227 330.0859375 194.06298828 C316.33297865 201.70985139 302.66630949 209.48090039 289.08984375 217.4375 C282.78429535 221.13213337 276.45702466 224.7884724 270.125 228.4375 C269.04629639 229.05931152 267.96759277 229.68112305 266.85620117 230.32177734 C262.47423228 232.84711251 258.09159223 235.37128175 253.70898438 237.89550781 C250.43068938 239.78398493 247.15271515 241.67301666 243.875 243.5625 C242.25658203 244.49545898 242.25658203 244.49545898 240.60546875 245.44726562 C233.43127998 249.58688477 226.27444437 253.75532419 219.125 257.9375 C210.48717999 262.98838019 201.8168036 267.98024353 193.125 272.9375 C175.74198306 282.85201231 158.39932285 292.83456905 141.125 302.9375 C131.8543033 308.35949017 122.54063405 313.70323953 113.20953369 319.02023315 C105.11292157 323.63484029 97.04211199 328.29084886 89 333 C80.36502228 338.05631048 71.69385765 343.04593006 63 348 C49.15734572 355.88962265 35.39024477 363.9053581 21.64697266 371.96679688 C19.37808575 373.29753367 17.10872742 374.62746708 14.83886719 375.95654297 C12.69125734 377.21406295 10.5447321 378.47343747 8.39941406 379.73486328 C7.44389648 380.29415527 6.48837891 380.85344727 5.50390625 381.4296875 C4.65642822 381.92710449 3.8089502 382.42452148 2.93579102 382.93701172 C1 384 1 384 0 384 C0 257.28 0 130.56 0 0 Z " fill="#FFFEFE" transform="translate(512,256)"/>
</svg>
